<svg width="203" height="179" viewBox="0 0 203 179" fill="none" xmlns="http://www.w3.org/2000/svg">
<path d="M93.6763 179C91.2305 179 88.7877 178.805 86.3599 178.369C75.9223 176.49 66.8506 170.347 57.6695 165.037C41.2335 155.534 22.6961 147.646 11.9649 131.982C-3.26541 109.752 2.59818 78.6362 16.9449 55.826C35.8746 25.7305 66.1301 8.99999 100.471 8.99999C104.67 8.99999 108.935 9.2501 113.243 9.75636C149.15 13.9817 193.9 29.1665 201.743 68.3657C206.59 92.5853 196.983 118.214 180.442 136.557C163.902 154.899 141.166 166.674 117.685 174.331C109.915 176.864 101.777 179.001 93.6763 179Z" fill="#FDF7DC"/>
<path d="M155.79 75.648C154.354 77.1947 152.112 77.8547 149.734 78.5547C149.198 78.712 148.657 78.8746 148.116 79.0466C149.1 74.9133 149.592 70.6813 149.576 66.4133C152.208 63.7213 153.265 59.7426 152.481 56.208C153.113 55.2266 153.692 54.2093 154.196 53.152L155.626 58.2013C156.652 61.804 157.709 65.5306 157.734 69.2346C157.748 71.1933 157.424 73.892 155.79 75.648V75.648ZM140.214 92.7933C138.926 93.3626 137.713 93.8946 136.477 94.1386C135.288 94.372 133.986 94.3427 132.877 94.288C130.072 94.144 127.278 93.748 124.544 93.1133C126.284 91.952 127.905 90.5133 129.058 88.6333C131.182 89.1546 133.54 89.5053 136.32 89.676C136.845 89.708 137.381 89.7306 137.928 89.7306C140.042 89.7306 142.249 89.392 144.013 87.9653C145.464 86.7973 146.254 85.1827 146.842 83.5213C147.005 83.4427 147.188 83.388 147.356 83.316C147.064 85.912 146.572 88.1667 145.176 89.756C143.954 91.148 142.052 91.984 140.214 92.7933V92.7933ZM117.122 92.7786C116.334 93.1253 115.594 93.4533 114.913 93.5266C114.125 93.592 113.24 93.3653 112.477 93.1213C107.876 91.6307 103.365 88.4253 99.077 83.5933C97.9143 82.2813 96.609 80.6987 95.7263 78.8907C94.7503 76.884 94.321 74.6133 94.1183 72.3213C94.6863 73.048 95.3503 73.7787 96.193 74.3547C97.2436 75.076 98.421 75.4453 99.5557 75.4453C99.973 75.4453 100.381 75.384 100.777 75.2813C101.977 76.728 103.306 78.1413 104.794 79.5093C105.914 80.5453 107.165 81.5733 108.718 82.12C109.778 82.4933 110.862 82.6026 111.876 82.6026C112.357 82.6026 112.82 82.576 113.261 82.548C114.797 82.436 116.312 82.2106 117.833 81.9293C119.658 84.2653 122.226 86.148 125.341 87.4413C123.529 89.7853 120.538 91.2613 117.122 92.7786V92.7786ZM86.2356 47.8426C85.9249 46.2893 85.7143 44.6813 86.2503 43.4426C86.7237 42.3586 87.8357 41.4466 88.8423 40.6746C91.8103 38.3946 95.009 36.4053 98.3477 34.7533C99.9863 33.9413 101.818 33.1426 103.697 32.8066C103.218 33.8666 102.948 35.0253 103.1 36.292L103.15 36.4547C102.066 37.6613 101.485 39.1026 101.072 40.364C99.673 44.5893 99.297 49.088 99.853 53.468C96.8103 54.4786 94.4849 57.3146 94.2276 60.56C94.0823 62.4426 94.593 64.1773 95.0557 65.476C95.645 67.1373 96.4156 68.7653 97.3329 70.3613C96.9423 69.9053 96.5756 69.392 96.2156 68.8706C94.3743 66.2373 92.4703 63.5146 90.925 60.696C88.7077 56.6666 87.1289 52.3426 86.2356 47.8426V47.8426ZM116.164 27.3C118.501 27.0373 120.969 28.2266 123.149 29.24C125.232 30.2106 127.109 31.2867 129.092 32.4213C125.621 32.904 122.214 33.9107 119.077 35.4827C118.812 35.616 118.606 35.812 118.438 36.0346C117.429 35.6426 116.418 35.2533 115.388 34.9173C112.188 33.8773 109.428 33.6413 107.172 34.1626C107.625 33.252 108.408 32.368 109.133 31.624C110.968 29.7467 113.425 27.5626 116.164 27.3V27.3ZM122.685 48.1187C123.092 48.3867 123.576 48.48 124.049 48.3893C124.084 48.5013 124.125 48.744 124.086 49.1187C123.952 50.4427 122.978 51.624 121.856 52.9907C121.162 53.8333 120.473 54.6826 119.926 55.5986C119.092 56.9906 118.318 58.464 117.946 60.0253C117.513 59.5693 117.133 59.0333 116.828 58.544C115.926 57.0973 115.512 55.9453 115.522 54.92C115.54 53.4147 116.517 51.9627 117.334 51.0147C118.413 49.764 119.562 48.9106 120.74 48.4706C121.4 48.2253 122.08 48.1227 122.685 48.1187V48.1187ZM132.385 48.0026L132.469 48.18C133.372 49.9507 133.529 52.1 132.86 53.972C132.174 55.8906 130.642 57.5013 128.768 58.2813C127.838 58.6653 126.796 58.88 125.688 59.1026C125.06 59.2293 124.433 59.3613 123.813 59.5187C123.069 59.708 122.406 59.9453 121.789 60.2106C122.102 59.3146 122.597 58.404 123.128 57.52C123.584 56.7613 124.166 56.0613 124.74 55.3613C126.056 53.76 127.55 51.9413 127.798 49.4986C127.908 48.4546 127.756 47.532 127.408 46.78C128.265 46.5373 129.165 46.4346 130.06 46.504C130.682 46.548 131.142 46.6693 131.452 46.8653C131.77 47.0666 132.084 47.4546 132.385 48.0026V48.0026ZM146.245 64.408C144.662 65.6293 142.649 66.2626 140.116 66.8386C134.945 68.0026 129.632 68.5973 124.332 68.604C123.645 68.604 123.048 68.5893 122.642 68.408C121.836 68.0466 121.365 66.808 120.99 65.4653C121.121 65.3533 121.241 65.2253 121.341 65.0746C121.906 64.2213 123.052 63.5693 124.74 63.1346C125.297 62.9933 125.866 62.876 126.432 62.7626C127.664 62.5106 128.936 62.252 130.201 61.7306C133.034 60.5493 135.342 58.1173 136.374 55.2266C137.017 53.4293 137.162 51.4586 136.833 49.576C138.609 49.9906 140.366 50.5013 142.077 51.132C144.006 51.8386 146.398 52.8853 147.78 54.6946C149.884 57.444 149.133 62.1653 146.245 64.408V64.408ZM134.136 35.8213C136.389 35.876 137.88 36.2333 138.985 36.9773C139.956 37.6333 140.736 38.6906 141.516 39.8026C143.104 42.0746 144.433 45.2613 145.177 48.352C144.554 48.0773 143.944 47.836 143.368 47.624C140.712 46.6493 137.962 45.92 135.18 45.4266C134.676 44.696 134.106 44.1293 133.45 43.712C132.785 43.2893 131.972 43.052 131.068 42.9093C130.937 42.7066 130.766 42.5253 130.556 42.3813C128.078 40.6933 125.48 39.208 122.79 37.912C126.409 36.4493 130.353 35.708 134.136 35.8213ZM104.616 41.5346C104.918 40.62 105.316 39.588 105.969 38.888C107.817 36.9187 111.482 37.568 114.228 38.468C118.122 39.7373 121.854 41.44 125.376 43.524C124.693 43.7867 124.034 44.1106 123.416 44.4986C122.121 44.3506 120.761 44.48 119.437 44.9693C117.662 45.6333 116.006 46.844 114.508 48.576C112.729 50.6426 111.813 52.7653 111.788 54.876C111.762 57.2026 112.845 59.212 113.658 60.5213C114.59 62.016 115.621 63.1173 116.736 63.8453L114.618 65.4613C113.21 66.5293 111.617 67.5866 110.457 67.2C109.772 66.9813 109.133 66.2306 108.597 65.5266C103.478 58.7746 101.95 49.5826 104.616 41.5346V41.5346ZM98.5743 64.2253C98.0716 62.8106 97.8783 61.768 97.9463 60.856C98.0703 59.3173 99.1636 57.8853 100.569 57.212C101.542 61.0133 103.233 64.6307 105.622 67.78C106.509 68.9507 107.638 70.22 109.32 70.7586C109.877 70.9373 110.432 71.0147 110.968 71.0147C113.488 71.0147 115.704 69.3226 116.878 68.4293L117.788 67.736C118.325 69.24 119.253 70.976 121.112 71.8133C122.278 72.3373 123.514 72.3373 124.334 72.3373C128.158 72.3333 131.981 72.016 135.761 71.436C135.806 72.0093 135.508 72.7546 134.974 73.26C134.06 74.128 132.662 74.5653 131.193 74.9773C128.166 75.816 125.108 76.516 121.79 77.2746C118.905 77.9306 115.92 78.6093 112.992 78.8213C112.01 78.8907 110.873 78.9226 109.958 78.5986C108.994 78.2586 108.094 77.4746 107.325 76.764C103.085 72.864 100.142 68.648 98.5743 64.2253V64.2253ZM143.601 81.468C143.09 83.1013 142.569 84.3373 141.673 85.0586C140.444 86.044 138.496 86.0613 136.549 85.9493C132.71 85.716 129.753 85.1586 127.248 84.196C125.716 83.6066 123.78 82.5946 122.098 81.0306C122.361 80.972 122.62 80.916 122.884 80.856C125.997 80.1413 129.112 79.4293 132.192 78.5733C134.06 78.056 136.006 77.428 137.541 75.9733C138.872 74.712 139.757 72.7106 139.45 70.772C139.946 70.6693 140.446 70.5893 140.94 70.4786C142.558 70.1133 144.21 69.64 145.776 68.944C145.578 73.1933 144.872 77.3973 143.601 81.468V81.468ZM151.513 35.3693C152.658 36.66 153.224 38.7093 153.194 41.4653C153.154 45.16 152.21 48.86 150.517 52.16C150.176 51.744 149.809 51.3626 149.421 51.0106C148.95 46.4826 147.062 41.224 144.574 37.6626C143.622 36.3066 142.569 34.8947 141.074 33.8853C139.704 32.9587 138.181 32.512 136.74 32.292C136.585 32.2186 136.444 32.1386 136.292 32.064C139.114 32.1253 141.936 32.332 144.736 32.7147C147.353 33.076 149.985 33.644 151.513 35.3693V35.3693ZM47.013 79.4626C44.5556 77.716 42.7837 74.9893 41.0703 72.352L30.813 56.7026L30.821 56.6986C32.393 56.1893 34.0383 55.8267 35.7063 55.6133L35.7969 55.6026C37.4609 55.3946 39.1477 55.336 40.8037 55.4373C42.029 55.5106 43.465 55.9373 44.9823 56.3893C46.413 56.8133 47.941 57.2573 49.4823 57.4547C48.4743 59.1093 47.6836 60.932 47.7903 63.288C48.0596 69.4533 54.0863 77.104 59.0903 79.568C59.277 79.6613 59.4716 79.7293 59.6609 79.812C55.8503 82.1546 50.665 82.06 47.013 79.4626V79.4626ZM35.6917 50.764C35.2983 50.2386 34.897 49.7213 34.5876 49.1266C34.397 48.7573 34.1823 48.3453 34.1383 48.0507C34.069 47.5613 34.4783 46.892 35.1156 46.4467C35.8703 45.9213 36.8876 45.6293 38.2996 45.2253C43.1343 43.8173 47.7716 41.8053 52.093 39.2413C54.601 37.7533 55.4583 37.9613 55.7356 38.2093C56.2383 38.6586 55.881 40.1747 54.9543 41.52C54.0143 42.884 52.9236 44.1306 51.713 45.24C51.6436 44.576 51.4183 43.8427 50.7837 43.2453C50.1743 42.672 48.8143 41.9026 46.5276 43.132L42.9917 45.0213C42.073 45.5133 39.925 46.6693 39.7463 48.9586C39.665 49.9586 40.0343 50.936 40.6943 51.7053C39.2676 51.632 37.8517 51.6746 36.445 51.7986C36.205 51.4453 35.949 51.104 35.6917 50.764V50.764ZM58.3477 43.1147C58.777 42.408 59.121 41.652 59.353 40.8787C59.5183 41.1587 59.6423 41.4546 59.7423 41.7586C59.2343 42.1746 58.7783 42.6387 58.3477 43.1147ZM47.7543 52.3386C51.1743 50.7346 54.1876 48.388 56.5983 45.4986C55.6796 46.9666 54.8463 48.468 54.0543 49.932C53.3356 51.264 52.625 52.524 51.873 53.756C50.281 54.024 48.2943 53.4746 46.341 52.896C46.8383 52.732 47.3183 52.544 47.7543 52.3386V52.3386ZM43.465 49.2653C43.4836 49.2106 43.6263 48.9187 44.753 48.3133L47.9796 46.588C47.969 46.968 47.9876 47.4453 48.1183 47.9187C47.4876 48.2987 46.8343 48.6453 46.1677 48.9586C45.449 49.2946 44.633 49.6413 43.9863 49.528C43.7277 49.4866 43.4943 49.2866 43.465 49.2653V49.2653ZM65.5436 43.124H65.6276V43.1827L65.6383 43.62C65.7263 45.612 66.9143 47.1426 67.8703 48.372L68.2596 48.8787C72.2263 54.1293 73.2263 62.052 70.929 70.0706C69.9916 73.34 68.7663 75.328 67.0783 76.316C65.3503 77.336 62.921 77.2973 60.741 76.2213H60.7383C56.8436 74.3 51.7237 67.752 51.517 63.12C51.429 61.148 52.4463 59.664 53.729 57.7893L54.1596 57.1586C54.3383 56.8933 54.4877 56.6187 54.6583 56.3507L54.7876 56.1386C55.709 54.6693 56.549 53.1706 57.3397 51.704C58.2543 50.008 59.1223 48.404 60.1356 46.8626C61.3063 45.0786 63.4356 43.124 65.5436 43.124V43.124ZM156.402 47.2453L156.285 47.016C156.68 45.2013 156.908 43.3546 156.928 41.5053C156.968 37.7933 156.085 34.8947 154.306 32.8907C151.969 30.2533 148.414 29.4507 145.242 29.0173C140.088 28.3067 134.852 28.128 129.674 28.464C128.097 27.5693 126.478 26.6733 124.725 25.856C122.242 24.6973 119.194 23.2773 115.806 23.5813C111.894 23.9573 108.792 26.6426 106.518 28.9613C102.901 28.6533 99.5223 30.0053 96.693 31.4053C93.1343 33.164 89.729 35.2853 86.5703 37.7133C85.0943 38.844 83.617 40.1413 82.8263 41.9547C81.8783 44.1413 82.1663 46.5266 82.5743 48.572C83.541 53.444 85.2517 58.1293 87.6503 62.4973C88.457 63.9653 89.341 65.3866 90.257 66.7786C90.2316 66.904 90.1823 67.0227 90.185 67.1573C90.2276 71.408 90.2756 76.228 92.3716 80.524C93.393 82.62 94.8437 84.4226 96.0583 85.8093C88.973 90.752 81.1316 92.9013 72.8543 95.1266C71.1116 95.5946 69.357 96.0733 67.5983 96.5773C68.617 94.1173 69.0183 91.3866 68.6969 88.76C68.3436 85.832 67.0863 82.9947 65.1917 80.7173C66.5437 80.5853 67.8356 80.2026 68.9663 79.5386C72.3436 77.5586 73.7517 73.7746 74.517 71.0986C77.1343 61.9573 75.9103 52.808 71.2383 46.6293L70.8156 46.0813C70.0903 45.144 69.4009 44.2586 69.3609 43.1613C69.3569 42.5226 69.3529 41.4506 68.5303 40.576C67.8009 39.8026 66.8263 39.6613 66.5063 39.6093C65.2797 39.44 64.125 39.5986 63.0436 39.944C62.2156 37.9986 60.645 36.3733 58.6956 35.54C58.549 35.4786 58.3916 35.472 58.2383 35.448L58.2117 35.4173C55.4037 32.9267 51.477 35.2666 50.1863 36.032C46.1383 38.432 41.789 40.3213 36.9317 41.732C35.6743 42.096 34.245 42.504 32.9863 43.38C31.1703 44.6413 30.1716 46.68 30.441 48.5867C30.5796 49.5093 30.981 50.2853 31.273 50.8467C31.5677 51.4107 31.9223 51.924 32.2876 52.4293C31.4076 52.632 30.5343 52.8667 29.6716 53.148C27.0543 53.9947 26.8129 55.7106 26.8276 56.4253C26.8569 57.2906 27.2836 57.9466 27.5103 58.3L37.9383 74.384C39.7543 77.18 41.8143 80.348 44.8516 82.5026C47.3996 84.3186 50.5143 85.224 53.6316 85.224C56.593 85.224 59.541 84.372 62.0183 82.736C63.637 84.5186 64.705 86.8266 64.993 89.2093C65.325 91.9293 64.6463 94.7987 63.1303 97.0813C62.9343 97.3773 62.865 97.7066 62.853 98.0373C57.9477 99.664 53.0837 101.719 48.4677 104.833C44.3303 107.623 37.2423 113.613 36.221 122.379C36.1036 123.403 36.8369 124.329 37.8609 124.449L38.0796 124.46C39.0143 124.46 39.8196 123.76 39.933 122.808C40.7783 115.528 46.9516 110.357 50.5543 107.924C57.7943 103.043 65.945 100.851 73.8236 98.732C82.2236 96.476 90.8836 94.1026 98.649 88.5426C102.693 92.512 106.944 95.252 111.325 96.672C112.222 96.964 113.366 97.2786 114.589 97.2786C114.825 97.2786 115.066 97.2626 115.31 97.2373C116.569 97.1066 117.665 96.6213 118.636 96.192C119.112 95.98 119.617 95.7533 120.133 95.516C120.353 95.7453 120.61 95.94 120.937 96.0346C124.754 97.1426 128.706 97.8093 132.688 98.0147C133.177 98.04 133.694 98.0613 134.234 98.0613C135.178 98.0613 136.189 98 137.194 97.8026C138.84 97.4786 140.301 96.8333 141.716 96.2133C143.826 95.2826 146.216 94.2333 147.984 92.2213C150.602 89.2347 150.97 85.0773 151.236 82.04L151.232 82.0026C153.845 81.2306 156.502 80.364 158.525 78.1946C160.48 76.0893 161.497 72.9826 161.468 69.2093C161.438 64.9986 160.312 61.024 159.221 57.1813L156.402 47.2453" fill="#6D6D6D"/>
<path d="M100.908 117.171C101.542 117.143 102.118 116.792 102.44 116.241C102.757 115.695 102.774 115.02 102.486 114.455C98.0316 105.759 87.8329 100.643 78.1702 102.273H78.1662C75.5235 102.729 71.1435 105.603 70.5209 108.64C70.0102 111.101 70.3022 113.544 70.6155 115.64C71.3875 120.855 72.6502 126.013 74.3635 130.976C74.9982 132.813 75.8289 134.877 77.7062 136.172C78.8489 136.952 80.1102 137.139 81.1529 136.671C82.0129 136.304 82.4942 135.621 82.7822 135.216L84.1862 133.237C88.3169 136.587 93.6009 138.465 98.9209 138.465C99.5662 138.465 100.212 138.436 100.857 138.381C101.317 138.341 102.4 138.251 103.224 137.416C104.128 136.493 104.117 135.272 104.113 134.753C104.08 128.781 102.137 122.36 98.9129 117.259L100.908 117.171Z" fill="#6D6D6D"/>
<path d="M42.5397 105.862C44.957 98.4924 36.385 86.1244 29.6463 81.6978C27.2916 80.1564 25.7383 80.8124 25.0303 81.3364C24.1223 82.0018 23.809 83.0004 23.641 83.5351L22.4677 87.2617C19.7623 85.1297 15.8423 84.4738 11.889 85.4871C8.52101 86.3618 5.62233 88.2178 2.709 90.2044C-0.332333 92.2791 -0.172349 94.3324 0.192985 95.3791C0.622318 96.5924 1.63964 97.2564 2.24897 97.6498C9.06364 102.084 16.1116 106.664 23.8383 109.868C25.8396 110.699 28.0197 111.487 30.365 111.608C30.8717 111.638 31.357 111.648 31.8263 111.648C39.065 111.648 41.657 108.552 42.5397 105.862Z" fill="#6D6D6D"/>
<path d="M70.9649 23.6696C70.8703 24.1723 70.7649 24.7403 70.5609 25.0803C70.2209 25.6443 69.2556 25.9443 68.3329 25.7803C67.1369 25.5683 65.9516 24.7669 64.9343 24.0296C64.5449 23.7456 63.6289 23.0803 63.5382 22.5656C63.4862 22.2576 63.6623 21.7029 63.8036 21.2523C64.1583 20.1296 64.5222 18.9723 65.2076 18.2629L65.2849 18.1789C65.5396 17.8829 65.8209 17.7216 66.2182 17.7216C66.8782 17.7216 67.8542 18.1616 69.5569 19.1509C70.0609 19.4416 70.5782 19.7416 70.8409 20.0656C71.4169 20.7829 71.2423 22.2176 70.9649 23.6696ZM71.1809 15.7763C69.2916 14.6829 65.3716 12.4043 62.4849 15.7069C61.2156 17.0456 60.6756 18.7549 60.2462 20.1269C59.9942 20.9176 59.6516 21.9989 59.8596 23.2003C60.2049 25.2109 61.9196 26.4549 62.7436 27.0523C64.0996 28.0336 65.7116 29.1123 67.6902 29.4549C68.0809 29.5243 68.4676 29.5576 68.8503 29.5576C70.8996 29.5576 72.7809 28.6136 73.7516 27.0203C74.3089 26.0976 74.4982 25.0909 74.6329 24.3616C74.9329 22.7976 75.4862 19.8883 73.7542 17.7309C73.0582 16.8616 72.1543 16.3376 71.1809 15.7763Z" fill="#6D6D6D"/>
<path d="M92.6783 8.92005C91.829 9.48539 90.6183 9.60005 89.5143 9.21738C88.2876 8.79072 87.3689 7.66137 87.2303 6.40937C87.1503 5.71337 87.2997 4.73204 88.4556 4.01204C88.7516 3.82804 89.141 3.7347 89.5863 3.7347C90.1076 3.7347 90.6983 3.86271 91.2996 4.11605C92.5543 4.64671 93.5676 5.63338 93.7609 6.51738C93.9436 7.34805 93.477 8.38139 92.6783 8.92005ZM92.7516 0.676041C90.4836 -0.279959 88.1929 -0.219959 86.4796 0.842708C84.3543 2.16937 83.249 4.40402 83.5196 6.82536C83.821 9.51736 85.6916 11.84 88.2876 12.7427C89.1276 13.0347 89.9916 13.1787 90.8409 13.1787C92.2516 13.1787 93.6223 12.7827 94.7636 12.0147C96.8276 10.6267 97.9143 8.03738 97.4076 5.71872C96.9516 3.62672 95.1649 1.69471 92.7516 0.676041Z" fill="#6D6D6D"/>
</svg>
