<svg width="94" height="73" viewBox="0 0 94 73" fill="none" xmlns="http://www.w3.org/2000/svg">
<path d="M4.92438 22.1158C5.16483 21.5688 5.81745 21.1282 6.34988 21.1239C6.47011 21.1308 6.81359 21.1514 6.93382 21.7182C7.03687 22.1974 6.89088 22.8586 6.4615 23.087C6.28975 23.1789 5.96344 23.1789 5.61994 23.0913C5.27644 23.0046 5.11329 22.8998 5.036 22.8277C4.8986 22.686 4.76122 22.5039 4.92438 22.1158ZM20.6396 4.46066C21.1291 3.36402 22.3743 2.51215 23.4563 2.54479C24.5126 2.60576 24.856 3.46622 24.9677 3.97375C25.1823 4.95273 24.8818 6.27436 23.9029 6.7939C23.3704 7.07901 22.649 6.98798 22.1338 6.86003C21.6099 6.72607 21.2063 6.53541 20.9573 6.2898C20.7597 6.10174 20.1759 5.52637 20.6396 4.46066ZM31.2967 6.97079C31.5371 6.42377 32.1297 5.97036 32.7136 5.97894C32.8424 5.98582 33.1774 6.00642 33.3062 6.57406C33.4093 7.0541 33.2546 7.71362 32.8253 7.94205C32.6535 8.03565 32.3358 8.03823 31.9837 7.94634C31.6488 7.86133 31.4856 7.75742 31.4083 7.68528C31.2623 7.54359 31.1249 7.36066 31.2967 6.97079ZM40.7859 7.14082C41.2668 6.04419 42.5549 5.19233 43.6026 5.22581C44.6589 5.28593 45.0024 6.14553 45.1141 6.65305C45.3288 7.63118 45.0282 8.95367 44.0492 9.47407C43.5168 9.75918 42.7954 9.66815 42.2887 9.53934C41.7563 9.40537 41.3527 9.21472 41.1037 8.96997C40.9062 8.78104 40.3222 8.20568 40.7859 7.14082ZM51.9154 11.438C52.1558 10.9065 52.7999 10.4453 53.2894 10.4453L53.3409 10.4462C53.4612 10.4548 53.8046 10.4745 53.9334 11.0422C54.0365 11.5222 53.8819 12.1817 53.4526 12.4101C53.2722 12.5038 52.963 12.5038 52.6024 12.4144C52.2674 12.3286 52.1043 12.2255 52.0356 12.1542V12.1534C51.8896 12.0117 51.7522 11.8288 51.9154 11.438ZM66.2308 17.0775C66.6945 16.0161 67.9226 15.1607 68.9445 15.1607L69.0475 15.1625C70.1038 15.2234 70.4473 16.083 70.559 16.5906C70.7736 17.5695 70.473 18.892 69.4941 19.4116C69.2279 19.5524 68.9187 19.5996 68.6096 19.5971L68.4206 19.5455L68.2661 19.5687C68.0771 19.5464 67.8882 19.5155 67.7251 19.4743C67.1926 19.3429 66.7976 19.1522 66.5486 18.9092V18.9075C66.351 18.7185 65.7585 18.1423 66.2308 17.0775ZM79.9881 21.5464C80.2285 20.996 80.9671 20.5451 81.3965 20.5546C81.5253 20.5615 81.8687 20.5821 81.9889 21.1488C82.1006 21.6297 81.946 22.2893 81.5166 22.516C81.3363 22.6087 81.0358 22.6113 80.6665 22.522C80.3316 22.4378 80.1684 22.3322 80.0911 22.2583C79.9537 22.1175 79.8163 21.9337 79.9881 21.5464ZM87.1758 45.844C87.6568 44.7483 88.9191 43.905 89.9925 43.929C91.0488 43.9891 91.3923 44.8496 91.5039 45.3571C91.7186 46.3361 91.4181 47.6586 90.4391 48.179C89.9067 48.4632 89.1853 48.3688 88.67 48.2408C88.3952 48.173 88.1634 48.088 87.9659 47.9901C87.9831 47.6783 87.8886 47.358 87.6654 47.1038C87.4936 46.8994 87.2531 46.7895 87.0127 46.7346C86.9869 46.4872 87.0213 46.1944 87.1758 45.844ZM25.294 62.7666C19.0508 67.0501 10.9528 69.7114 1.87581 70.4611C1.20598 70.5169 0.707866 71.1051 0.767979 71.7741C0.819504 72.4096 1.3519 72.8914 1.97879 72.8914L2.08186 72.8871C11.5711 72.1022 20.0727 69.2957 26.668 64.7718C33.8557 59.8417 38.888 52.7561 40.7086 45.1201C44.4442 49.0463 49.6568 51.9833 55.5651 53.4346C58.751 54.2152 62.1345 54.605 65.7842 54.605C68.309 54.605 70.9625 54.4178 73.7706 54.0434C77.6093 53.5325 82.3754 52.5681 86.2655 49.8072C86.755 50.1601 87.3562 50.422 88.0775 50.6015C88.6014 50.7312 89.0994 50.7965 89.5717 50.7965C90.3103 50.7965 90.9887 50.6393 91.5812 50.3276C93.6423 49.2327 94.2949 46.7363 93.8827 44.835C93.4533 42.8856 92.0192 41.6078 90.1299 41.4996C88.0603 41.3622 85.8447 42.8281 84.9516 44.8625C84.4965 45.8844 84.4536 46.9329 84.7885 47.8724C81.3363 50.2941 76.9739 51.1623 73.453 51.632C66.9093 52.5037 61.2501 52.3207 56.1491 51.0695C51.4689 49.9231 47.2867 47.7779 44.032 44.9346C46.2132 45.3391 48.5061 45.5675 50.9192 45.5675C51.0223 45.5675 51.1339 45.5675 51.2455 45.5658C57.8064 45.5186 63.7146 43.935 68.3347 40.9878C73.1266 37.9315 80.1254 31.058 81.259 25.0089C81.7657 24.9943 82.2466 24.887 82.6588 24.6654C84.007 23.9492 84.7284 22.2515 84.3677 20.6267C84.05 19.166 82.9679 18.2067 81.5424 18.126C80.0052 18.0307 78.408 19.0904 77.7553 20.5666C77.2143 21.7989 77.4547 23.0845 78.3994 24.0042V24.0051C78.5454 24.1467 78.7257 24.2532 78.9061 24.3657C78.0731 29.666 71.3833 36.1624 67.0294 38.9362C62.7872 41.637 57.3255 43.0891 51.2198 43.1329C49.8458 43.1441 48.5319 43.0608 47.2438 42.9346C49.6655 42.506 52.1988 41.6825 54.672 40.4828C56.9305 39.3793 59.8503 37.8284 62.3407 35.6094C66.2823 32.1014 68.8071 27.167 69.4254 21.9423C69.8548 21.8685 70.2669 21.756 70.6362 21.561C72.6972 20.4653 73.3499 17.9689 72.9291 16.0702C72.5083 14.1208 71.0742 12.8421 69.185 12.7339C67.1411 12.6188 64.8998 14.0632 64.0067 16.0976C63.2853 17.7327 63.603 19.4356 64.8482 20.6507C65.3893 21.1797 66.102 21.5516 66.9951 21.7929C66.4198 26.3812 64.187 30.7085 60.7262 33.7931C58.4591 35.8146 55.7282 37.2608 53.6071 38.2947C50.4211 39.8465 47.1321 40.7259 44.2381 40.8366C47.3984 37.3192 49.1673 32.7892 50.4984 28.6792C51.9583 24.1553 53.1091 19.4906 53.9421 14.8035C54.1653 14.7443 54.3886 14.667 54.5947 14.5579C55.9429 13.8426 56.6557 12.1448 56.3036 10.5217C55.9859 9.05929 54.9038 8.10007 53.4783 8.01763C51.9411 7.93948 50.3439 8.98029 49.6912 10.4573C49.1502 11.6897 49.3907 12.9761 50.3353 13.8967C50.6444 14.1981 51.048 14.4111 51.5032 14.5845C50.6959 19.093 49.5881 23.5791 48.1798 27.9313C46.6941 32.5385 44.6245 37.6884 40.597 40.9551L40.4854 41.0737C38.8108 32.2989 39.6867 22.0411 42.9929 12.0812L43.1819 12.0933C43.929 12.0933 44.6074 11.9353 45.1913 11.6227C47.2523 10.5278 47.9136 8.03135 47.4928 6.13093C47.0634 4.18241 45.6293 2.90546 43.7401 2.79726C41.6791 2.67703 39.4548 4.1266 38.5617 6.16099C37.8404 7.79434 38.1582 9.49725 39.4034 10.7141C39.7469 11.043 40.1591 11.3066 40.6314 11.523C37.4969 21.0449 36.4921 30.8476 37.7459 39.485C35.2298 37.4506 33.7356 34.2362 32.8854 31.6402C30.6269 24.7702 30.6698 17.2406 32.9627 10.3895C33.3234 10.338 33.6668 10.2521 33.9674 10.0898C35.3156 9.37445 36.037 7.67841 35.6849 6.05537C35.3586 4.59205 34.2765 3.63197 32.851 3.55038C31.3138 3.46107 29.7252 4.51562 29.0639 5.99096C28.5229 7.22327 28.7634 8.50883 29.708 9.42942L29.7166 9.43113C29.9484 9.65441 30.2232 9.83475 30.5324 9.98761C28.188 17.2329 28.1966 25.1584 30.5668 32.3985C31.0906 33.9906 31.8377 35.7897 32.8854 37.4858C29.7423 35.095 27.1145 32.0275 25.294 28.5092C22.2626 22.674 21.5069 15.755 23.1643 9.39849C23.8599 9.38132 24.4954 9.23704 25.045 8.94335C27.106 7.84758 27.7672 5.35204 27.3464 3.45248C26.917 1.50311 25.4829 0.224434 23.5937 0.116226C21.5498 0.0106049 19.3085 1.44472 18.4154 3.47997C17.694 5.11503 18.0117 6.81795 19.2569 8.0348C19.6691 8.42811 20.1672 8.73467 20.7598 8.9674C19.0165 15.852 19.8581 23.3215 23.13 29.6316C26.0583 35.2702 30.8587 39.8508 36.578 42.5722C30.9875 42.8719 25.3026 41.6954 20.5279 39.138C14.8 36.0688 10.1971 31.1679 7.44907 25.2915L7.60363 25.2348C8.95187 24.5186 9.67326 22.82 9.31258 21.1961C8.99484 19.7345 7.90419 18.7761 6.48725 18.6954C4.95008 18.5983 3.35283 19.6598 2.70018 21.136C2.15916 22.3683 2.39961 23.6538 3.34424 24.5727V24.5744C3.72209 24.9385 4.20303 25.1996 4.79557 25.3791C7.70675 32.1538 12.885 37.8018 19.3772 41.284C24.9849 44.2845 31.7261 45.5417 38.2526 44.8899C36.5093 51.8158 31.8806 58.247 25.294 62.7666Z" fill="#CACACA"/>
</svg>
