<svg width="207" height="206" viewBox="0 0 207 206" fill="none" xmlns="http://www.w3.org/2000/svg">
<path d="M80.8495 206C62.1058 205.998 43.6618 201.643 28.1696 191.099C14.4049 181.733 3.44458 167.254 0.706559 150.605C-1.78466 135.465 2.59976 119.909 9.34294 106.185C31.5784 60.9404 79.7746 35 128.284 35C131.462 35 134.649 35.1108 137.824 35.3357C187.501 38.8563 220.199 83.0643 199.875 134.176C186.309 168.324 152.972 190.959 118.137 200.684C106.1 204.044 93.41 206 80.8495 206Z" fill="#FEEEE9"/>
<path d="M127.61 63.964C130.882 64.6387 136.598 66.8534 138.125 74.0841C138.701 76.8081 138.377 79.9694 137.103 84.036C135.521 89.1027 133.347 92.3627 130.466 94.004C125.669 96.744 119.33 94.7307 114.854 92.5587C112.597 91.4627 109.763 89.908 107.851 87.5987C104.254 83.252 104.243 76.1534 107.822 71.0854C111.766 65.5134 120.275 62.4574 127.61 63.964ZM131.214 126.217C131.093 126.943 130.794 127.957 130.074 128.688C129.535 129.232 128.775 129.507 128.17 129.417C127.823 129.36 127.429 129.175 126.967 128.856C125.857 128.083 124.883 126.623 125.267 125.432C125.481 124.775 126.142 124.188 126.953 123.937C128.362 123.508 129.938 123.696 130.721 124.381C131.022 124.647 131.399 125.123 131.214 126.217ZM82.4781 98.5294C82.2968 98.8227 81.9394 99.2121 80.9581 99.2121H80.9501C79.9981 99.208 79.1502 98.9747 78.5555 98.5547C77.9981 98.1601 77.6367 97.5494 77.6367 97.0107C77.6367 96.688 77.7474 96.2987 77.9647 95.8467C78.4527 94.8134 79.4887 93.796 80.5261 93.796L80.7514 93.8134C81.3568 93.9041 81.9647 94.4001 82.3047 95.0814V95.0827C82.902 96.2787 82.9728 97.728 82.4781 98.5294ZM81.5741 74.4067C81.4448 74.4734 81.1502 74.6387 80.5221 74.296C79.9021 73.956 79.43 73.5081 79.194 73.0241C78.998 72.6214 78.9728 72.1521 79.1354 71.8521C79.2341 71.6694 79.4381 71.4681 79.7288 71.2574C80.2568 70.8734 80.8767 70.6667 81.3927 70.6667C81.6927 70.6667 81.9541 70.7361 82.1461 70.8801C82.4554 71.1147 82.6554 71.6147 82.6367 72.1281C82.5954 73.2401 82.0568 74.132 81.5741 74.4067ZM114.313 40.0427C113.947 39.5107 114.165 38.4347 114.791 37.6481C115.075 37.2934 115.29 37.1441 115.415 37.0814C115.537 37.0214 115.685 36.9921 115.843 36.9921C116.087 36.9921 116.357 37.0614 116.597 37.1934C117.058 37.4441 117.486 37.9374 117.799 38.5747C118.117 39.2254 117.939 39.5094 117.862 39.6307C117.515 40.1787 116.533 40.5881 115.57 40.5881H115.541H115.537C115.029 40.5841 114.534 40.3654 114.313 40.0427ZM156.929 56.3947C157.33 55.8934 158.418 55.7801 159.37 56.1601C159.702 56.2894 159.942 56.4334 160.086 56.5841C160.315 56.8321 160.411 57.304 160.319 57.7414C160.215 58.2601 159.869 58.8134 159.351 59.3C158.825 59.7987 158.499 59.7107 158.363 59.6694C157.729 59.4974 157.042 58.6641 156.766 57.7281C156.622 57.2361 156.685 56.6987 156.929 56.3947ZM168.882 78.2881C169.197 78.0361 169.745 77.7507 170.785 78.1267C171.465 78.3747 172.411 78.8441 172.998 79.6854C173.451 80.3107 173.598 81.0947 173.385 81.6841C173.265 82.0174 173.011 82.384 172.625 82.772C171.665 83.728 170.051 84.4334 168.953 83.844C168.343 83.5174 167.882 82.7627 167.779 81.9214C167.606 80.4681 168.067 78.9387 168.882 78.2881ZM155.618 109.927L155.839 109.939C156.234 109.985 156.818 110.163 157.289 111.169C157.729 112.108 157.894 113.06 157.758 113.847C157.622 114.603 157.171 115.261 156.603 115.529C156.286 115.679 155.729 115.813 155.294 115.752C153.943 115.751 152.311 115.103 151.95 113.901C151.751 113.243 151.962 112.385 152.486 111.719C153.33 110.649 154.607 109.927 155.618 109.927ZM106.239 116.9C105.77 117.433 105.227 117.793 104.711 117.915C104.277 118.025 103.805 117.935 103.553 117.717C103.446 117.621 103.281 117.417 103.099 117.001C102.701 116.072 102.774 114.977 103.269 114.563C103.473 114.391 103.786 114.299 104.118 114.299C104.277 114.299 104.439 114.319 104.594 114.361C105.671 114.645 106.419 115.368 106.582 115.901C106.623 116.039 106.719 116.359 106.239 116.9ZM58.2034 81.2974C56.2407 82.7147 53.7421 83.0681 51.9901 83.1134C48.6995 83.2427 45.2421 82.3161 42.3675 80.6134C41.4701 80.0854 40.3087 80.376 39.7807 81.276C39.2461 82.1721 39.5447 83.3307 40.4421 83.864C43.7541 85.8294 47.6727 86.8987 51.5327 86.8987C51.7207 86.8987 51.9047 86.8961 52.0927 86.8921C55.3661 86.8027 58.2448 85.9294 60.4181 84.3601C62.3808 82.9427 63.6861 81.0614 64.5634 79.2161C72.1528 84.5947 81.4714 87.4987 90.794 87.4987C94.6314 87.4987 98.4648 87.0134 102.173 86.0161C102.31 85.9787 102.418 85.896 102.539 85.832C102.831 86.592 103.174 87.3241 103.578 88.0227C98.0995 90.9667 92.0274 92.9747 85.8807 93.8534C85.8154 93.7014 85.7594 93.5454 85.6848 93.396C84.7994 91.62 83.1235 90.3467 81.3115 90.076C78.2275 89.6 75.6514 91.9027 74.5527 94.2214C74.0981 95.1734 73.8621 96.104 73.8594 96.9987C73.8594 98.7627 74.822 100.54 76.3714 101.639C77.6114 102.517 79.1901 102.984 80.9581 102.989C83.0208 102.989 84.6994 102.113 85.6874 100.519C86.2141 99.6707 86.4954 98.6494 86.5581 97.572C93.2888 96.5894 99.9341 94.3467 105.897 91.0614C106.258 91.4254 106.635 91.7681 107.019 92.0947C102.794 100.735 95.2994 107.624 86.3128 111.047C86.1274 110.916 85.918 110.821 85.694 110.765C82.3434 106.869 76.5355 105.025 69.8341 105.88C65.9848 106.368 62.2994 107.541 58.8714 109.365C57.9527 109.856 57.6021 111 58.0927 111.923C58.5834 112.843 59.7275 113.181 60.6501 112.701C63.6675 111.092 66.9181 110.059 70.3061 109.629C72.9808 109.288 76.0968 109.456 78.7781 110.471C72.9075 111.064 67.2128 113.727 63.1728 117.999C62.4581 118.757 62.4914 119.953 63.2474 120.671C64.0074 121.388 65.1994 121.353 65.9194 120.597C70.0061 116.272 76.0648 113.885 82.0501 114.124C77.8915 120.325 72.2941 125.332 66.0581 128.384C65.1221 128.843 64.7341 129.973 65.1914 130.911C65.5194 131.581 66.1915 131.969 66.8888 131.969C67.1688 131.969 67.4541 131.909 67.7194 131.779C74.3114 128.551 80.2234 123.34 84.6981 116.912C85.3474 119.616 84.9087 122.567 84.0647 124.821C82.5887 128.755 79.7954 132.168 77.094 135.465C76.434 136.273 76.5527 137.464 77.3607 138.125C77.7114 138.412 78.1355 138.552 78.5555 138.552C79.1021 138.552 79.6448 138.316 80.0168 137.86C82.7768 134.487 85.9047 130.664 87.5994 126.148C89.1274 122.075 89.1981 117.923 87.9087 114.477C97.4794 110.757 105.503 103.469 110.15 94.3214C110.774 94.6961 111.391 95.0334 111.989 95.344L111.87 95.6307C110.81 100.967 108.682 106.18 105.726 110.76L105.567 110.708C103.87 110.259 102.07 110.632 100.834 111.672C98.7488 113.429 98.746 116.439 99.6274 118.489C99.9967 119.351 100.461 120.021 101.055 120.548C101.941 121.325 103.103 121.739 104.325 121.739C104.741 121.739 105.162 121.691 105.582 121.591C106.87 121.287 108.077 120.531 109.069 119.403C110.279 118.039 110.682 116.405 110.198 114.809C109.969 114.049 109.531 113.34 108.954 112.719C112.03 107.931 114.262 102.509 115.443 96.9521C115.929 97.1521 116.41 97.3387 116.887 97.5107C117.354 111.147 116.71 126.549 109.577 139.32C109.342 139.321 109.119 139.379 108.899 139.467C104.083 138.097 98.5567 139.376 92.038 143.437C91.1527 143.989 90.882 145.156 91.4327 146.041C91.9927 146.931 93.1674 147.192 94.038 146.644C97.946 144.207 101.339 142.923 104.326 142.736C100.637 146.199 98.0648 150.901 97.3061 155.883C97.1475 156.913 97.8568 157.877 98.8901 158.033C99.9008 158.199 100.886 157.487 101.041 156.451C101.778 151.611 104.565 147.075 108.494 144.14C109.085 146.72 109.198 149.517 108.793 152.104C108.246 155.613 107.081 159.093 105.951 162.457C105.619 163.448 106.151 164.519 107.139 164.851C107.339 164.917 107.542 164.948 107.741 164.948C108.53 164.948 109.269 164.451 109.53 163.66C110.711 160.147 111.929 156.512 112.526 152.689C112.859 150.567 112.887 148.323 112.643 146.124C113.659 147.245 114.505 148.589 115.083 150.084C116.298 153.227 116.378 156.959 115.305 160.32C114.987 161.315 115.537 162.377 116.53 162.693C116.722 162.757 116.913 162.784 117.105 162.784C117.906 162.784 118.647 162.273 118.906 161.471C120.238 157.301 120.127 152.655 118.607 148.721C117.418 145.643 115.342 143.016 112.814 141.279C120.233 128.079 121.106 112.511 120.706 98.6147C121.441 98.7694 122.159 98.8814 122.865 98.9627C125.374 105.691 126.607 113.012 126.441 120.18C126.241 120.227 126.041 120.267 125.838 120.329C123.854 120.94 122.259 122.453 121.673 124.269C120.673 127.357 122.599 130.42 124.817 131.961C125.75 132.607 126.647 132.993 127.554 133.144C127.85 133.193 128.145 133.215 128.441 133.215C130.001 133.215 131.569 132.549 132.761 131.345C133.882 130.211 134.635 128.656 134.941 126.845C135.299 124.715 134.683 122.829 133.211 121.54C132.403 120.832 131.361 120.36 130.219 120.119C130.365 112.999 129.21 105.748 126.879 98.9987C127.262 98.9587 127.63 98.8841 128.001 98.8174C142.055 125.893 148.383 157.447 145.795 187.837C145.707 188.879 146.479 189.791 147.519 189.879L147.682 189.887C148.653 189.887 149.475 189.144 149.559 188.157C152.187 157.268 145.814 125.209 131.629 97.6281C131.863 97.5121 132.109 97.4174 132.337 97.2881C133.679 96.5227 134.887 95.512 135.979 94.268C141.422 98.256 146.221 103.283 149.929 108.916C149.791 109.069 149.647 109.216 149.519 109.38C148.231 111.013 147.778 113.165 148.335 114.993C149.269 118.104 152.593 119.527 155.311 119.531C156.434 119.531 157.386 119.339 158.215 118.948C159.906 118.152 161.123 116.492 161.477 114.503C161.754 112.932 161.489 111.227 160.71 109.567C159.791 107.609 158.215 106.408 156.271 106.184C155.193 106.061 154.069 106.265 152.995 106.712C149.043 100.74 143.943 95.4121 138.161 91.1827C138.998 89.7174 139.73 88.024 140.378 86.1294C150.631 89.18 160.547 93.3601 169.878 98.5841C169.465 99.1654 169.097 99.7774 168.786 100.431C167.473 103.191 167.063 106.508 167.642 109.769C167.879 111.136 168.259 112.269 168.794 113.227C169.398 114.299 170.198 115.184 170.998 115.977C172.545 117.54 174.225 119.001 175.985 120.323C176.331 120.576 176.731 120.7 177.118 120.7C177.691 120.7 178.265 120.437 178.638 119.944C179.251 119.109 179.091 117.925 178.251 117.3C176.638 116.088 175.091 114.747 173.678 113.315C173.118 112.755 172.491 112.096 172.091 111.385C171.771 110.8 171.531 110.059 171.358 109.116C171.051 107.38 171.131 105.651 171.518 104.06C174.638 109.535 180.025 113.647 186.158 115.129C186.305 115.165 186.465 115.183 186.598 115.183C187.451 115.183 188.225 114.601 188.438 113.736C188.678 112.723 188.065 111.701 187.051 111.457C181.611 110.144 176.865 106.388 174.331 101.405C173.998 100.733 173.985 100.492 173.998 100.437C174.078 100.219 174.091 99.9934 174.091 99.772C174.238 99.832 174.385 99.9054 174.545 99.9254C179.438 100.536 184.158 102.333 188.211 105.123C188.531 105.349 188.905 105.456 189.278 105.456C189.878 105.456 190.465 105.171 190.838 104.639C191.425 103.779 191.211 102.601 190.358 102.012C187.038 99.7294 183.318 98.0454 179.465 97.0254C181.878 96.7241 184.105 96.8347 186.065 97.3467C188.251 97.9147 190.118 98.9814 191.465 100.425C192.171 101.185 193.371 101.232 194.131 100.516C194.891 99.8041 194.931 98.608 194.225 97.8467C192.385 95.8787 189.891 94.4401 187.025 93.6894C184.585 93.0587 181.891 92.9227 178.998 93.276C177.785 93.428 176.811 93.636 175.918 93.9374C174.665 94.356 173.505 95.008 172.465 95.8294C172.331 95.6947 172.211 95.5587 172.038 95.4627C162.374 90.0174 152.087 85.6707 141.447 82.5067C141.522 82.1974 141.591 81.8787 141.658 81.5561C141.843 81.5801 142.03 81.6027 142.221 81.572C149.349 80.2347 156.874 80.3094 163.991 81.7601C164.002 81.9641 164.006 82.1694 164.03 82.376C164.278 84.4334 165.485 86.272 167.174 87.176C168.038 87.6374 168.946 87.836 169.851 87.836C171.931 87.836 173.971 86.7734 175.305 85.4414C176.091 84.6414 176.638 83.8267 176.945 82.9534C177.558 81.2187 177.238 79.132 176.091 77.5094C175.171 76.204 173.785 75.188 172.051 74.5707C170.025 73.84 168.059 74.112 166.525 75.336C165.685 76.0067 165.037 76.9494 164.597 78.032C157.253 76.5547 149.518 76.4627 142.142 77.7574C142.182 76.9054 142.174 76.0374 142.094 75.1574C150.85 74.4107 159.463 72.496 167.713 69.4454C173.131 67.4441 179.798 64.3761 183.705 58.4454C185.345 59.7387 187.171 60.6254 189.038 60.9694C189.771 61.104 190.505 61.1614 191.211 61.1614C193.145 61.1614 194.931 60.744 196.398 60.3387C199.505 59.472 202.505 58.2107 205.291 56.5907C206.198 56.0681 206.505 54.9107 205.985 54.0094C205.451 53.1001 204.291 52.8001 203.398 53.3214C200.878 54.7801 198.185 55.9187 195.371 56.7014C192.998 57.3614 191.265 57.5374 189.731 57.2547C188.171 56.9667 186.638 56.1107 185.291 54.8347C185.598 54.8574 185.905 54.8841 186.211 54.8841C191.091 54.8841 195.305 52.0094 196.985 50.6881C198.225 49.7121 199.918 48.1521 200.385 45.8734C200.598 44.8494 199.931 43.8534 198.905 43.6467C197.918 43.4361 196.891 44.1014 196.678 45.1254C196.518 45.9307 195.878 46.7574 194.651 47.7201C191.611 50.1094 188.158 51.3494 185.305 51.0574C185.091 51.0361 184.998 50.9854 184.905 51.0027C184.891 50.3747 185.705 48.5734 187.185 46.8507C189.011 44.7334 191.518 43.1467 193.958 41.7481C194.878 41.2307 195.185 40.0747 194.665 39.1694C194.145 38.2614 192.985 37.9494 192.091 38.468C189.358 40.036 186.518 41.8387 184.318 44.3907C183.825 44.9627 182.798 46.2414 182.051 47.7494C182.078 47.3734 182.091 47.0014 182.158 46.5841C182.665 43.6361 184.171 40.9014 186.385 38.8854C187.158 38.1841 187.211 36.9894 186.505 36.2174C185.811 35.4467 184.625 35.3894 183.838 36.0921C180.998 38.6694 179.078 42.1694 178.438 45.9494C178.158 47.5907 178.158 49.0427 178.425 50.3894C178.718 51.8774 179.371 53.3454 180.411 54.8761C180.611 55.1907 180.851 55.4854 181.078 55.7801C180.958 55.8894 180.825 55.9894 180.731 56.132C177.451 61.308 171.345 64.0734 166.399 65.9027C158.319 68.8907 149.875 70.752 141.291 71.4387C141.006 70.5614 140.667 69.7187 140.261 68.9267C145.579 67.5614 150.721 65.232 155.25 62.1334C155.887 62.692 156.607 63.1081 157.374 63.3161C157.777 63.4254 158.179 63.4787 158.577 63.4787C159.777 63.4787 160.938 62.9921 161.938 62.0547C163.034 61.0227 163.758 59.7947 164.019 58.5094C164.362 56.8747 163.913 55.1521 162.846 54.0094C162.307 53.4307 161.621 52.9841 160.754 52.6441C158.677 51.8241 155.67 51.912 153.969 54.0454C152.95 55.328 152.641 57.104 153.142 58.8014L153.199 58.9601C148.71 62.0481 143.558 64.3254 138.254 65.5414L138.001 65.6561C137.389 64.9667 136.722 64.3307 135.994 63.7547C139.182 60.2401 141.655 56.1667 143.194 51.9067C143.386 51.9814 143.551 52.0667 143.753 52.1387C145.099 52.616 146.231 52.8934 147.319 53.0054C147.693 53.0454 148.069 53.0627 148.449 53.0627C151.046 53.0627 153.747 52.1694 156.165 50.4907C158.286 49.0187 160.178 47.0027 162.119 44.1494C162.702 43.2867 162.481 42.1121 161.618 41.5254C160.765 40.9427 159.589 41.1601 158.99 42.0267C157.322 44.4841 155.739 46.1867 154.01 47.3881C151.983 48.7947 149.77 49.4667 147.707 49.2454C147.222 49.1961 146.685 49.0734 146.111 48.9134L146.183 48.8747C147.918 47.9214 149.914 46.7774 151.659 45.236C153.633 43.4921 155.009 41.4454 155.643 39.3187C155.939 38.3187 155.371 37.2681 154.371 36.9707C153.361 36.6694 152.319 37.2427 152.021 38.2414C151.589 39.6894 150.599 41.1294 149.158 42.4041C147.943 43.4747 146.509 44.3601 145.114 45.1467C145.845 42.3041 146.83 39.4361 148.626 37.2214C149.283 36.4107 149.158 35.2214 148.35 34.5654C147.542 33.9094 146.353 34.028 145.689 34.8414C142.966 38.2014 141.855 42.3627 140.979 46.1867C140.827 46.0267 140.661 45.872 140.534 45.7014C139.487 44.2827 139.273 42.4814 139.281 41.2214C139.295 39.4201 139.73 37.5587 140.177 35.808C140.435 34.7974 139.826 33.7694 138.815 33.5121C137.805 33.2574 136.775 33.864 136.517 34.8747C136.011 36.8507 135.517 38.9667 135.502 41.1947C135.487 43.8307 136.177 46.1667 137.502 47.9534C138.111 48.7747 138.891 49.4974 139.815 50.1507C138.411 54.2641 136.018 58.212 132.886 61.568L132.774 61.7507C131.419 61.1081 129.961 60.5934 128.374 60.2654C127.714 60.128 127.046 60.0307 126.377 59.9547C129.607 48.0987 129.677 35.2507 126.547 23.3894C128.606 22.7227 130.57 21.6681 132.274 20.2267C136.247 16.8614 138.763 11.6681 139.181 5.98273C139.254 4.94006 138.473 4.03607 137.431 3.96141C136.487 3.85741 135.487 4.66405 135.41 5.70671C135.07 10.388 133.037 14.6294 129.831 17.3427C129.082 17.9787 128.262 18.5041 127.41 18.9507C128.833 13.3534 129.509 7.60938 129.347 1.83604C129.318 0.793381 128.333 -0.00395203 127.407 4.57764e-05C126.363 0.0293732 125.539 0.900055 125.57 1.94272C125.739 7.90538 124.998 13.8441 123.37 19.5881L123.351 19.6507C123.175 19.3814 123.017 19.0854 122.865 18.796C120.53 14.2467 119.449 9.15073 119.737 4.05339C119.795 3.01073 118.998 2.12007 117.958 2.06007C116.833 2.04541 116.025 2.80138 115.965 3.83871C115.643 9.50272 116.826 15.1627 119.369 20.236C118.859 20.136 118.359 20.0014 117.873 19.8281C116.607 19.3787 115.279 18.6321 113.814 17.5521C112.142 16.3134 110.895 15.0867 110.01 13.804C109.302 12.7774 108.453 11.156 108.423 9.26538C108.409 8.23204 107.563 7.40405 106.505 7.40405C105.465 7.41737 104.63 8.27739 104.645 9.32007C104.678 11.5667 105.457 13.8587 106.899 15.9507C108.029 17.5827 109.557 19.1014 111.571 20.5881C113.338 21.8961 114.987 22.8134 116.607 23.3881C118.167 23.9441 119.825 24.2134 121.499 24.2134C121.949 24.2134 122.399 24.1907 122.85 24.1521C125.939 35.7241 125.822 48.3094 122.506 59.836C122.135 59.8534 121.766 59.872 121.397 59.9067C121.686 54.3454 120.969 48.6521 119.303 43.3281C120.025 42.8827 120.635 42.3147 121.061 41.6441C121.95 40.2321 121.994 38.5534 121.19 36.9094C120.522 35.5547 119.559 34.5081 118.407 33.8787C116.925 33.0627 115.183 32.9907 113.759 33.6867C113.058 34.0294 112.43 34.5521 111.843 35.2867C110.449 37.0334 109.653 39.9347 111.198 42.1827C112.113 43.5147 113.766 44.3507 115.505 44.3667H115.574L115.673 44.3601C117.31 49.5614 117.977 55.1507 117.582 60.5707C116.619 60.812 115.674 61.1041 114.754 61.4534C112.061 50.4681 106.493 40.4094 98.5688 32.3254C98.3648 32.1187 98.122 31.9827 97.866 31.8881C98.5327 30.5827 98.9954 29.1761 99.2034 27.7121C99.5687 25.1374 99.2248 22.3574 98.1555 19.2174C97.0515 15.9787 94.8568 11.5227 90.6581 8.69206C89.7981 8.11873 88.6208 8.33337 88.0341 9.20404C87.4515 10.0694 87.6807 11.2427 88.5474 11.8254C91.8714 14.0694 93.6607 17.7454 94.5767 20.4347C95.45 23.0014 95.7421 25.2094 95.4621 27.1854C95.3448 28.0107 95.0781 28.8067 94.7421 29.576C91.8234 23.4734 88.0795 18.8654 83.5728 15.8987C82.6995 15.324 81.53 15.5627 80.9541 16.4374C80.382 17.308 80.6221 18.4801 81.4927 19.0534C85.1634 21.4694 88.3967 25.3534 90.9421 30.3747C85.9794 30.1094 81.1501 27.8187 77.8728 24.0627C77.1861 23.2747 75.9875 23.1974 75.2061 23.8787C74.4195 24.5654 74.3381 25.7601 75.0248 26.5454C79.0261 31.1294 84.9488 33.8721 91.0074 34.1281C89.7034 35.0481 88.2115 35.7094 86.6288 35.968C82.2941 36.6734 77.4527 34.5414 74.8434 30.764C74.25 29.9027 73.0688 29.6974 72.2168 30.2827C71.3568 30.8747 71.1434 32.052 71.7367 32.912C74.7367 37.2587 79.8181 39.8854 84.9061 39.8854C85.6848 39.8854 86.4661 39.8227 87.2408 39.6947C90.5968 39.1454 93.6248 37.3654 95.8128 34.8867L95.8675 34.9707C103.502 42.7547 108.83 52.48 111.285 63.0987C109.429 64.164 107.753 65.464 106.341 66.9707C102.55 64.8307 99.206 61.8467 96.6714 58.2987C96.5407 58.116 96.3755 57.9787 96.2008 57.8574C96.8715 55.5881 96.6235 52.9654 95.4395 50.4387C94.2555 47.9134 92.3741 45.8641 90.7128 44.0547C90.0088 43.2841 88.8088 43.2374 88.0461 43.9387C87.2781 44.6427 87.2261 45.8387 87.9314 46.608C89.4767 48.2961 91.0781 50.0414 92.0194 52.0454C92.8287 53.7694 92.9675 55.5387 92.4955 56.9454C92.1261 55.6214 91.4354 54.3414 90.7314 53.4507C89.4287 51.8027 88.0421 50.2121 86.6061 48.7214C85.8795 47.9694 84.6874 47.9534 83.9354 48.6707C83.1821 49.3934 83.1608 50.5894 83.8835 51.3414C85.2341 52.744 86.5394 54.2427 87.7688 55.7934C88.0194 56.1121 88.2554 56.5014 88.4514 56.9027C85.5261 56.5814 82.6701 55.3334 80.5008 53.3774C79.7248 52.6814 78.534 52.7454 77.8327 53.5147C77.1314 54.2921 77.1941 55.4854 77.9688 56.1841C80.6141 58.5681 83.9434 60.076 87.438 60.5721C86.4207 60.7401 85.2834 60.7961 83.9461 60.7174C80.7914 60.5294 78.434 59.7081 76.9327 58.2787C76.1834 57.5587 74.9887 57.584 74.2607 58.3414C73.542 59.0974 73.5714 60.2934 74.3274 61.0121C76.4887 63.0747 79.6514 64.2441 83.7181 64.4881C84.2381 64.5187 84.7328 64.5347 85.2115 64.5347C87.1195 64.5347 88.7314 64.2867 90.2074 63.772C91.7688 63.2307 93.1075 62.3361 94.1675 61.2481C96.8408 64.7707 100.219 67.7694 104.029 70.0014C103.074 71.5907 102.387 73.3107 101.953 75.0787C96.6807 75.1614 91.3394 74.24 86.3994 72.4334L86.4141 72.2627C86.4741 70.496 85.7327 68.852 84.4261 67.8654C82.2567 66.2254 79.3128 66.888 77.5074 68.2C76.7474 68.7534 76.1941 69.3547 75.8222 70.0414C75.0621 71.432 75.0541 73.1721 75.8034 74.6894C76.3861 75.8801 77.3901 76.8907 78.7115 77.6107C79.5368 78.0627 80.3821 78.2894 81.2087 78.2894C81.9834 78.2894 82.7367 78.0921 83.4367 77.6947C84.1274 77.3027 84.7234 76.7187 85.2021 76.0174C90.3488 77.8854 95.9021 78.872 101.421 78.872C101.378 80.04 101.438 81.2027 101.611 82.34C101.471 82.3454 101.331 82.328 101.191 82.3667C89.1848 85.5987 75.746 82.952 65.8434 75.5014C67.4687 68.604 65.5461 61.108 60.7647 55.8707C60.0634 55.1014 58.8714 55.0454 58.0968 55.7494C57.3248 56.4521 57.2701 57.6481 57.9754 58.4161C61.4434 62.2174 63.1168 67.6721 62.5008 72.7921C62.2208 72.5027 61.9314 72.2161 61.638 71.9267C60.1247 70.4174 58.5421 68.9787 56.9354 67.5707C55.8154 66.5907 53.8275 64.1 52.1901 64.168C51.6835 64.1894 51.1981 64.4934 50.9594 64.94C50.7407 65.3454 50.7248 65.8267 50.7448 66.2867C50.8061 67.7574 52.8408 69.0161 53.8728 69.9134C55.6848 71.4894 57.4687 73.1014 59.1701 74.796C59.4647 75.0907 59.7648 75.3854 60.0408 75.6841C59.5248 75.7987 58.9154 75.8694 58.2034 75.896C53.3914 76.104 48.4848 74.6747 44.4781 71.9334C43.6515 71.3654 42.5301 71.5427 41.9141 72.3414C41.3007 73.136 41.4194 74.2694 42.1794 74.9241L42.5888 75.272C42.7808 75.4374 42.998 75.5547 43.2274 75.6294C47.4407 78.268 52.3848 79.6907 57.3555 79.6907C57.6862 79.6907 58.0194 79.684 58.3514 79.6707C58.8234 79.6534 59.3621 79.6134 59.9288 79.5347C59.4048 80.2187 58.8434 80.8374 58.2034 81.2974Z" fill="#6D6D6D"/>
</svg>
