<svg width="313" height="431" viewBox="0 0 313 431" fill="none" xmlns="http://www.w3.org/2000/svg">
<path d="M90.5332 75.658C91.8774 76.5496 93.7522 76.3985 95.0968 75.5071C96.0022 74.9062 96.7265 73.9267 96.7408 72.841C96.7465 72.4024 96.6367 71.9681 96.4716 71.5635C95.8711 70.0938 94.428 68.9656 92.8431 68.8819C89.3705 68.7023 87.5844 73.6991 90.5332 75.658Z" fill="#6D6D6D"/>
<path d="M101.287 133.028C100.195 131.764 99.4919 128.56 100.239 125.999C100.504 125.084 101.061 123.924 102.207 123.579C103.163 123.291 104.364 123.418 105.776 123.958C107.731 124.7 110.026 126.328 110.604 128.671C111.152 130.906 109.879 133.477 107.773 134.463C105.686 135.446 102.837 134.815 101.287 133.028ZM114.504 129.613C114.496 128.993 114.42 128.374 114.272 127.767C113.485 124.573 110.808 121.828 107.118 120.427C104.912 119.584 102.894 119.426 101.12 119.96C98.9544 120.612 97.3542 122.383 96.6094 124.948C95.5638 128.553 96.3479 133.098 98.434 135.503C101.12 138.601 105.723 139.6 109.377 137.885C112.519 136.414 114.542 133.006 114.504 129.613Z" fill="#6D6D6D"/>
<path d="M120.765 108.679C120.324 108.434 119.898 108.048 119.493 107.538C118.379 106.127 117.98 104.682 118.339 103.501C118.728 102.223 119.954 101.195 121.788 100.613C122.97 100.234 124.238 100.408 125.016 101.052C125.382 101.358 125.705 101.805 125.972 102.382C126.787 104.165 126.555 106.345 125.414 107.701C124.292 109.03 122.165 109.48 120.765 108.679ZM116.531 109.882C117.24 110.778 118.039 111.478 118.896 111.967C121.873 113.663 126.004 112.86 128.301 110.134C129.593 108.602 130.255 106.579 130.231 104.524C130.217 103.259 129.946 101.986 129.402 100.8C128.895 99.7059 128.232 98.8128 127.43 98.1471C125.656 96.6761 123.056 96.2407 120.64 97.0102C117.589 97.9848 115.489 99.8979 114.725 102.397C113.984 104.823 114.626 107.483 116.531 109.882Z" fill="#6D6D6D"/>
<path d="M96.1333 103.484C96.701 102.625 97.1947 101.652 97.1481 100.624C97.0863 99.2936 96.0935 98.1352 94.8931 97.5591C93.692 96.9818 92.3143 96.8987 90.9832 96.9623C85.7727 97.2104 87.7797 104.474 91.5085 105.648C92.0883 105.83 92.7127 105.907 93.3083 105.786C94.5314 105.54 95.4456 104.525 96.1333 103.484Z" fill="#6D6D6D"/>
<path d="M284.442 275.342C231.888 275.342 189.087 233.086 153.326 193.943C144.532 184.332 135.34 173.917 133.399 161.049C131.902 151.232 134.872 141.329 138.1 131.935C150.846 94.6707 169.604 57.2943 202.161 35.0951C231.981 14.7676 267.602 10.6152 302.872 10.6152C312.695 10.6152 322.471 10.9353 332.084 11.3185C333.253 11.3653 334.469 11.3863 335.756 11.3863C340.387 11.3863 345.766 11.1246 351.426 10.8629C357.063 10.6035 363.003 10.3418 368.757 10.3418C378.674 10.3418 388.029 11.1176 394.414 14.0058C410.997 21.5091 419.463 49.5362 425.965 65.1084C435.601 88.1395 445.401 112.196 443.834 137.106C441.308 177.315 410.155 209.525 378.393 234.334C351.941 254.996 321.769 273.977 288.207 275.267C286.944 275.316 285.681 275.342 284.442 275.342Z" fill="#FDF7DC"/>
<path d="M139.627 34.1658C140.001 33.3165 141.014 32.6325 141.841 32.6258C142.027 32.6365 142.561 32.6685 142.747 33.5485C142.907 34.2925 142.681 35.3192 142.014 35.6738C141.747 35.8165 141.241 35.8165 140.707 35.6805C140.174 35.5458 139.921 35.3832 139.801 35.2712C139.587 35.0512 139.374 34.7685 139.627 34.1658ZM164.027 6.75381C164.787 5.05114 166.721 3.7285 168.401 3.77917C170.041 3.87383 170.574 5.20982 170.747 5.99782C171.081 7.51781 170.614 9.56983 169.094 10.3765C168.267 10.8192 167.147 10.6778 166.347 10.4792C165.534 10.2712 164.907 9.97515 164.521 9.59381C164.214 9.30181 163.307 8.40848 164.027 6.75381ZM180.574 10.6511C180.947 9.8018 181.867 9.09783 182.774 9.11117C182.974 9.12183 183.494 9.15382 183.694 10.0352C183.854 10.7805 183.614 11.8045 182.947 12.1591C182.681 12.3045 182.187 12.3085 181.641 12.1658C181.121 12.0338 180.867 11.8725 180.747 11.7605C180.521 11.5405 180.307 11.2565 180.574 10.6511ZM195.307 10.9151C196.054 9.21247 198.054 7.88983 199.681 7.94183C201.321 8.03516 201.854 9.36981 202.027 10.1578C202.361 11.6765 201.894 13.7298 200.374 14.5378C199.547 14.9805 198.427 14.8392 197.641 14.6392C196.814 14.4312 196.187 14.1351 195.801 13.7551C195.494 13.4618 194.587 12.5685 195.307 10.9151ZM212.587 17.5871C212.961 16.7618 213.961 16.0458 214.721 16.0458L214.801 16.0471C214.987 16.0605 215.521 16.0912 215.721 16.9725C215.881 17.7178 215.641 18.7418 214.974 19.0965C214.694 19.2418 214.214 19.2418 213.654 19.1032C213.134 18.9698 212.881 18.8098 212.774 18.6992V18.6978C212.547 18.4778 212.334 18.1938 212.587 17.5871ZM234.814 26.3432C235.534 24.6952 237.441 23.3672 239.027 23.3672L239.187 23.3698C240.827 23.4645 241.361 24.7991 241.534 25.5871C241.867 27.1071 241.401 29.1605 239.881 29.9672C239.467 30.1858 238.987 30.2591 238.507 30.2551L238.214 30.1752L237.974 30.2112C237.681 30.1765 237.387 30.1285 237.134 30.0645C236.307 29.8605 235.694 29.5645 235.307 29.1871V29.1845C235.001 28.8911 234.081 27.9965 234.814 26.3432ZM256.174 33.2818C256.547 32.4271 257.694 31.7272 258.361 31.7418C258.561 31.7525 259.094 31.7845 259.281 32.6645C259.454 33.4111 259.214 34.4351 258.547 34.7871C258.267 34.9311 257.801 34.9352 257.227 34.7965C256.707 34.6658 256.454 34.5018 256.334 34.3871C256.121 34.1685 255.907 33.8831 256.174 33.2818ZM267.334 71.0072C268.081 69.3058 270.041 67.9965 271.707 68.0338C273.347 68.1272 273.88 69.4631 274.054 70.2511C274.387 71.7711 273.921 73.8245 272.401 74.6325C271.574 75.0738 270.454 74.9271 269.654 74.7285C269.227 74.6231 268.867 74.4912 268.561 74.3392C268.587 73.8552 268.441 73.3578 268.094 72.9631C267.827 72.6458 267.454 72.4751 267.081 72.3898C267.041 72.0058 267.094 71.5512 267.334 71.0072ZM171.254 97.2818C161.561 103.932 148.987 108.064 134.894 109.228C133.854 109.315 133.081 110.228 133.174 111.267C133.254 112.254 134.081 113.002 135.054 113.002L135.214 112.995C149.947 111.776 163.147 107.419 173.387 100.395C184.547 92.7405 192.361 81.7391 195.187 69.8831C200.987 75.9791 209.081 80.5391 218.254 82.7925C223.201 84.0045 228.454 84.6098 234.12 84.6098C238.041 84.6098 242.16 84.3192 246.521 83.7378C252.48 82.9445 259.881 81.4471 265.921 77.1605C266.68 77.7085 267.614 78.1151 268.734 78.3938C269.547 78.5951 270.32 78.6965 271.054 78.6965C272.201 78.6965 273.254 78.4525 274.174 77.9685C277.374 76.2685 278.387 72.3925 277.747 69.4405C277.081 66.4138 274.854 64.4298 271.921 64.2618C268.707 64.0485 265.267 66.3245 263.881 69.4831C263.174 71.0698 263.107 72.6978 263.627 74.1565C258.267 77.9165 251.494 79.2645 246.027 79.9938C235.867 81.3471 227.081 81.0631 219.161 79.1205C211.894 77.3405 205.401 74.0098 200.347 69.5951C203.734 70.2231 207.294 70.5778 211.041 70.5778C211.201 70.5778 211.374 70.5778 211.547 70.5752C221.734 70.5018 230.907 68.0432 238.081 63.4672C245.521 58.7218 256.387 48.0498 258.147 38.6578C258.934 38.6351 259.681 38.4685 260.321 38.1245C262.414 37.0125 263.534 34.3765 262.974 31.8538C262.481 29.5858 260.8 28.0965 258.587 27.9712C256.201 27.8232 253.721 29.4685 252.707 31.7605C251.867 33.6738 252.241 35.6698 253.707 37.0978V37.0992C253.934 37.3192 254.214 37.4845 254.494 37.6591C253.201 45.8885 242.814 55.9751 236.054 60.2818C229.467 64.4751 220.987 66.7298 211.507 66.7978C209.374 66.8151 207.334 66.6858 205.334 66.4898C209.094 65.8245 213.027 64.5458 216.867 62.6831C220.374 60.9698 224.907 58.5618 228.774 55.1165C234.894 49.6698 238.814 42.0085 239.774 33.8965C240.441 33.7818 241.08 33.6072 241.654 33.3045C244.854 31.6032 245.867 27.7272 245.214 24.7792C244.561 21.7525 242.334 19.7672 239.401 19.5992C236.227 19.4205 232.747 21.6631 231.361 24.8218C230.241 27.3605 230.734 30.0045 232.667 31.8911C233.507 32.7125 234.614 33.2898 236.001 33.6645C235.107 40.7885 231.641 47.5071 226.267 52.2965C222.747 55.4351 218.507 57.6805 215.214 59.2858C210.267 61.6951 205.161 63.0605 200.667 63.2325C205.574 57.7711 208.321 50.7378 210.387 44.3565C212.654 37.3325 214.441 30.0898 215.734 22.8125C216.081 22.7205 216.427 22.6005 216.747 22.4312C218.841 21.3205 219.947 18.6845 219.401 16.1645C218.907 13.8938 217.227 12.4045 215.014 12.2765C212.627 12.1552 210.147 13.7711 209.134 16.0645C208.294 17.9778 208.667 19.9752 210.134 21.4045C210.614 21.8725 211.241 22.2032 211.947 22.4725C210.694 29.4725 208.974 36.4378 206.787 43.1951C204.481 50.3485 201.267 58.3445 195.014 63.4165L194.841 63.6005C192.241 49.9765 193.601 34.0498 198.734 18.5858L199.027 18.6045C200.187 18.6045 201.241 18.3592 202.147 17.8738C205.347 16.1738 206.374 12.2978 205.721 9.34714C205.054 6.3218 202.827 4.33916 199.894 4.17116C196.694 3.98449 193.241 6.23515 191.854 9.39381C190.734 11.9298 191.227 14.5738 193.161 16.4632C193.694 16.9738 194.334 17.3831 195.067 17.7191C190.201 32.5031 188.641 47.7232 190.587 61.1338C186.681 57.9752 184.361 52.9845 183.041 48.9538C179.534 38.2871 179.601 26.5965 183.161 15.9591C183.721 15.8791 184.254 15.7458 184.721 15.4938C186.814 14.3831 187.934 11.7498 187.387 9.22982C186.881 6.95782 185.201 5.46716 182.987 5.34049C180.601 5.20183 178.134 6.83915 177.107 9.12981C176.267 11.0432 176.641 13.0392 178.107 14.4685L178.121 14.4712C178.481 14.8178 178.907 15.0978 179.387 15.3352C175.747 26.5845 175.761 38.8898 179.441 50.1311C180.254 52.6031 181.414 55.3965 183.041 58.0298C178.161 54.3178 174.081 49.5551 171.254 44.0925C166.547 35.0325 165.374 24.2898 167.947 14.4205C169.027 14.3938 170.014 14.1698 170.867 13.7138C174.067 12.0125 175.094 8.13781 174.441 5.18848C173.774 2.16181 171.547 0.176498 168.614 0.00849915C165.441 -0.155502 161.961 2.07115 160.574 5.23116C159.454 7.76982 159.947 10.4138 161.881 12.3032C162.521 12.9138 163.294 13.3898 164.214 13.7511C161.507 24.4405 162.814 36.0378 167.894 45.8352C172.441 54.5898 179.894 61.7018 188.774 65.9271C180.094 66.3925 171.267 64.5658 163.854 60.5951C154.961 55.8298 147.814 48.2205 143.547 39.0965L143.787 39.0085C145.881 37.8965 147.001 35.2592 146.441 32.7378C145.947 30.4685 144.254 28.9805 142.054 28.8551C139.667 28.7045 137.187 30.3525 136.174 32.6445C135.334 34.5578 135.707 36.5538 137.174 37.9805V37.9831C137.761 38.5485 138.507 38.9538 139.427 39.2325C143.947 49.7512 151.987 58.5205 162.067 63.9271C170.774 68.5858 181.241 70.5378 191.374 69.5258C188.667 80.2791 181.481 90.2645 171.254 97.2818Z" fill="#6D6D6D"/>
<path d="M256.856 337.638C240.279 347.038 220.324 349.976 202.184 356.577C173.557 366.996 148.897 386.871 119.72 395.625C110.135 398.5 99.8463 400.117 90.1375 397.695C74.5906 393.817 63.1952 380.25 56.3266 365.774C38.9964 329.244 45.1008 284.036 67.2828 250.231C81.9539 227.874 103.959 207.952 128.63 193.96C186.96 160.879 260.16 160.981 286.305 240.592C296.843 272.683 291.163 312.559 264.171 332.86C261.823 334.626 259.379 336.207 256.856 337.638Z" fill="#FEEEE9"/>
<path d="M149.149 254.678C154.564 252.949 160.61 252.715 166.173 254.018C173.006 255.614 177.543 258.311 178.315 261.235C162.959 256.897 145.767 258.568 131.529 265.777C136.309 261.077 142.167 256.902 149.149 254.678ZM176.958 267.696C173.088 273.856 163.284 279.09 157.956 280.128C153.802 280.938 149.405 280.807 145.155 280.675L125.455 280.078C135.943 279.154 146.383 277.34 156.563 274.649C163.474 272.825 171.341 270.301 177.984 265.575C177.728 266.272 177.409 266.977 176.958 267.696ZM121.17 279.466C127.936 272.471 137.814 267.773 151.317 265.118C156.998 263.999 162.927 264.305 168.663 264.597C171.528 264.746 174.478 264.896 177.401 264.871C170.889 269.484 163.132 271.94 156.32 273.737C144.834 276.77 133.014 278.697 121.17 279.466ZM130.15 267.553C144.631 259.586 162.574 257.653 178.457 262.261C178.508 262.798 178.497 263.342 178.417 263.898C175.19 263.974 171.899 263.817 168.711 263.653C162.918 263.356 156.931 263.051 151.133 264.191C138.631 266.648 129.176 270.852 122.371 276.994C124.381 273.963 126.85 270.7 129.771 267.578C129.893 267.62 130.028 267.619 130.15 267.553ZM184.263 185.697C186.185 181.897 188.348 178.274 190.716 174.828C182.222 195.344 176.786 217.392 174.822 239.44C174.281 237.665 173.949 235.628 173.864 233.754C173.816 232.68 173.786 231.608 173.774 230.534C173.6 215.094 177.202 199.659 184.263 185.697ZM200.318 191.523C199.508 201.495 198.439 212.049 195.113 221.81C192.887 228.352 188.81 237.275 182.045 242.643C180.271 244.051 178.826 244.516 177.751 244.027C177.478 243.902 177.22 243.72 176.972 243.488C181.011 241.596 184.135 238.004 185.689 233.369C189.662 221.528 191.848 209.046 193.962 196.982C194.994 191.089 195.114 185.708 195.23 180.504C195.321 176.467 195.429 172.316 195.951 167.926C197.299 166.317 198.694 164.753 200.147 163.25C201.674 172.524 201.103 181.921 200.318 191.523ZM193.203 171.37C193.743 170.658 194.299 169.959 194.858 169.265C194.469 173.16 194.367 176.869 194.287 180.481C194.17 185.652 194.052 190.996 193.031 196.816C190.924 208.85 188.745 221.294 184.793 233.069C183.292 237.549 180.244 240.973 176.322 242.726C176.064 242.363 175.822 241.948 175.602 241.486C177.514 217.505 183.552 193.467 193.203 171.37ZM84.1834 156.114C89.1646 160.478 94.3729 164.732 100.165 168.058C105.736 171.26 112.267 173.85 120.132 175.976C125.926 177.541 131.848 178.694 137.807 179.442C136.519 179.848 135.123 180.032 133.875 180.141C114.743 181.825 95.2633 171.767 84.1834 156.114ZM78.0649 144.745C83.493 147.059 89.0335 149.469 94.2782 152.284C97.1261 153.808 99.9561 155.492 102.695 157.118C106.674 159.483 110.788 161.923 115.043 163.949C117.028 164.889 119.104 165.821 121.218 166.771C128.166 169.891 135.303 173.108 141.045 177.454L140.998 177.507C140.599 177.978 140.111 178.362 139.572 178.679C133.101 177.953 126.663 176.763 120.379 175.065C112.592 172.962 106.134 170.4 100.635 167.241C93.8949 163.368 87.9232 158.206 82.1761 153.081C80.5566 150.431 79.1748 147.643 78.0649 144.745ZM92.7665 145.289C107.171 154.155 121.854 162.914 136.504 171.372C137.466 172.566 138.414 173.802 139.349 175.083C133.98 171.475 127.719 168.655 121.604 165.912C119.496 164.964 117.426 164.037 115.451 163.095C111.231 161.092 107.138 158.658 103.178 156.305C100.43 154.675 97.5913 152.988 94.7243 151.451C89.1935 148.486 83.3498 145.966 77.6289 143.533C77.5357 143.269 77.4336 143.008 77.345 142.741C82.4822 143.455 87.662 144.229 92.7665 145.289ZM114.253 152.504C121.726 156.397 128.561 161.971 134.829 169.308C121.682 161.692 108.527 153.849 95.5751 145.903C102.041 147.398 108.35 149.432 114.253 152.504ZM139.951 156.092C139.762 154.449 139.586 152.904 139.392 151.533C138.395 144.476 137.857 137.392 137.777 130.324C137.669 120.725 138.406 111.149 139.986 101.688C140.028 101.438 140.088 101.195 140.159 100.962C141.682 106.357 141.711 112.159 141.732 117.811L141.737 118.867C141.823 138.293 143.319 157.896 146.13 177.125C145.605 176.706 145.048 176.074 144.515 175.25C141.63 170.81 140.698 162.647 139.951 156.092ZM149.813 172.862C149.637 175.69 148.595 177.421 147.655 177.668C147.504 177.708 147.329 177.67 147.157 177.636C144.291 158.245 142.777 138.499 142.682 118.863L142.677 117.804C142.652 111.746 142.605 105.477 140.734 99.6592C140.807 99.5354 140.88 99.4128 140.95 99.3148C148.375 123.164 151.356 147.893 149.813 172.862ZM145.039 284.454C149.498 284.588 154.111 284.728 158.681 283.839C164.55 282.692 175.576 277.003 180.156 269.703C181.195 268.051 181.84 266.408 182.13 264.78C187.796 273.752 194.617 281.944 202.419 289.116C207.101 293.421 214.338 299.397 223.116 301.605C224.128 301.859 225.154 301.246 225.408 300.232C225.449 300.074 225.468 299.91 225.465 299.752C225.456 298.914 224.887 298.153 224.037 297.941C217.909 296.399 212.03 292.819 204.975 286.334C201.938 283.542 199.061 280.584 196.34 277.49C196.838 277.735 197.397 277.91 198.04 277.987C209.65 279.372 204.524 248.57 202.078 243.398C201.974 243.177 201.851 242.94 201.627 242.84C201.124 242.614 200.662 243.215 200.439 243.719C198.781 247.474 190.921 266.721 193.906 274.631C190.716 270.757 187.768 266.679 185.097 262.412C182.166 257.731 179.572 252.824 177.19 247.803C178.906 248.236 181.338 248.029 184.392 245.606C191.878 239.665 196.301 230.047 198.69 223.027C202.156 212.86 203.256 202.04 204.084 191.827C204.533 186.309 204.928 180.593 204.863 174.86C204.815 170.569 204.508 166.266 203.774 162.031C203.476 160.33 202.701 159.279 201.467 158.907C200.258 158.539 199.042 158.974 197.851 160.19C191.092 167.097 185.386 175.106 180.892 183.994C173.488 198.631 169.742 214.821 170.006 231.026C168.719 227.771 167.466 224.514 166.227 221.284C163.697 214.693 161.082 207.874 158.23 201.283C155.056 193.945 151.677 187.35 148.094 181.426C148.294 181.398 148.469 181.36 148.615 181.321C151.412 180.589 153.315 177.434 153.584 173.092C153.902 167.955 154.032 162.834 153.974 157.721C153.741 136.993 150.422 116.506 144.067 96.6379C143.915 96.1676 143.591 95.7768 143.156 95.5451C142.064 94.9639 140.859 94.944 139.761 95.4839C137.825 96.4396 136.607 98.9771 136.259 101.066C133.455 117.879 133.248 135.038 135.651 152.064C135.841 153.4 136.013 154.912 136.195 156.522C136.566 159.764 136.982 163.372 137.659 166.83C131.082 159.141 123.893 153.266 115.997 149.156C103.152 142.469 88.1686 140.411 74.9495 138.598C74.3227 138.509 73.6949 138.745 73.2748 139.218C72.8584 139.692 72.7011 140.339 72.8678 140.957C79.831 167.003 107.349 186.271 134.204 183.906C137.111 183.651 140.681 183.042 143.199 180.67C147.318 187.103 151.163 194.462 154.763 202.783C156.845 207.594 158.805 212.548 160.703 217.45C160.432 217.245 160.138 217.019 159.825 216.766C156.07 213.707 152.955 209.911 148.91 207.199C142.172 202.677 133.562 201.663 125.519 202.738C117.475 203.814 109.83 206.805 102.277 209.772C95.9489 212.258 89.6207 214.743 83.2924 217.228C83.811 221.091 87.6474 223.558 91.2699 224.994C99.9117 228.418 109.414 229.051 118.703 228.718C130.057 228.31 141.362 226.509 152.284 223.379C154.897 222.63 157.976 222.026 160.401 220.783C160.964 220.495 161.383 220.253 161.698 220.032C162.032 220.902 162.369 221.775 162.7 222.637C166.649 232.935 170.709 243.485 175.789 253.519C172.856 251.912 169.496 250.914 167.033 250.34C160.818 248.886 154.058 249.147 148.001 251.075C133.813 255.596 123.994 267.338 118.255 276.391C117.769 277.161 116.763 278.744 117.243 280.561C117.623 281.963 118.889 283.658 122.779 283.78L145.039 284.454Z" fill="#6D6D6D"/>
<path d="M328.09 273.187C319.851 273.187 311.639 272.501 303.582 270.79C280.807 265.958 260.588 253.295 240.908 240.858C235.563 237.481 229.99 233.866 226.978 228.305C223.584 222.041 224.055 214.447 225.06 207.394C227.06 193.366 230.922 179.355 238.608 167.45C251.02 148.225 272.411 136.219 294.562 130.473C310.215 126.411 334.906 120.979 355.308 120.979C362.007 120.979 368.247 121.566 373.548 122.978C397.324 129.313 417.383 159.309 423.103 181.623C430.27 209.585 420.176 242.319 395.976 258.051C383.304 266.29 368.054 269.513 353.062 271.429C344.792 272.485 336.427 273.187 328.09 273.187Z" fill="#EAF5F0"/>
<path d="M225.906 151.678C226.204 150.846 227.054 150.134 228.134 149.287L255.494 127.853C263.662 121.449 268.178 117.922 277.942 121.622C282.542 123.367 287.103 125.366 291.494 127.561C296.411 130.019 301.935 133.159 305.628 137.803C309.399 142.549 310.639 148.573 308.783 153.154C307.388 156.582 304.499 158.971 302.319 160.37C292.984 166.362 280.842 165.585 268.171 164.167L244.343 161.498C237.639 160.75 231.764 159.819 227.743 156.034C226.566 154.929 225.382 153.125 225.906 151.678ZM272.731 169.602C273.327 175.115 274.512 180.567 276.231 185.827C275.842 186.073 275.459 186.342 275.086 186.634C274.936 186.202 274.808 185.745 274.683 185.261C273.223 179.702 272.09 174.002 271.274 168.297C271.695 168.338 272.111 168.373 272.531 168.411C272.635 168.774 272.696 169.279 272.731 169.602ZM281.572 187.847C282.316 187.793 283.051 187.999 283.239 188.321C283.331 188.481 283.398 188.847 283.446 189.09C283.963 191.845 284.143 194.654 283.984 197.441C283.822 200.181 283.339 202.207 282.464 203.814C281.804 205.017 280.894 205.97 279.876 206.573L279.506 202.978C279.366 201.634 279.203 200.114 278.579 198.674C277.619 196.435 275.842 194.925 273.807 193.783C274.64 192.481 275.407 191.453 276.558 190.341C278.118 188.839 279.896 187.954 281.572 187.847ZM274.042 207.73C269.426 208.605 259.832 210.427 257.062 208.029C256.146 207.234 255.504 205.301 255.346 202.855C255.112 199.194 256.02 195.747 256.999 194.65C257.847 193.702 258.615 192.905 259.404 192.73C260.127 192.583 261.012 192.865 262.108 193.258L267.86 195.305C270.946 196.403 274.044 197.685 275.111 200.167C275.506 201.083 275.624 202.197 275.752 203.398L276.148 207.339C275.539 207.443 274.831 207.581 274.042 207.73ZM262.834 167.374C263.446 174.737 263.543 182.201 263.135 189.611C262.456 189.374 261.66 189.115 260.794 188.991C260.83 187.683 261.103 186.414 261.463 184.806C262.868 178.597 263.286 173.142 262.8 167.37L262.834 167.374ZM264.076 167.513L265.762 190.545L264.067 189.942C264.49 182.458 264.398 174.921 263.786 167.479L264.076 167.513ZM268.183 167.97C268.519 175.31 269.971 183.653 271.374 190.645C271.027 191.138 270.684 191.657 270.347 192.194C269.94 192.039 269.532 191.887 269.13 191.745L266.736 190.893L265.035 167.619L267.75 167.925C267.895 167.939 268.038 167.954 268.183 167.97ZM270.303 168.194C271.124 174.013 272.282 179.829 273.768 185.498C273.927 186.11 274.099 186.709 274.32 187.278C274.194 187.394 274.063 187.501 273.938 187.622C273.234 188.299 272.663 188.962 272.131 189.637C270.799 182.903 269.464 175.025 269.134 168.07C269.523 168.113 269.914 168.153 270.303 168.194ZM243.922 165.254L258.966 166.939C259.52 172.595 259.155 177.893 257.766 184.039C257.334 185.957 256.971 187.679 257.027 189.649C255.812 190.322 254.899 191.329 254.183 192.127L254.179 192.131C252.062 194.506 251.346 199.481 251.575 203.097C251.736 205.597 252.39 208.979 254.59 210.885C256.379 212.435 259.123 212.995 262.367 212.995C266.075 212.995 270.428 212.263 274.75 211.442C275.635 211.274 276.42 211.123 277.067 211.015C277.24 210.986 277.487 210.931 277.754 210.855C277.964 210.935 278.19 210.982 278.424 210.982L278.727 210.958C281.568 210.503 284.202 208.509 285.782 205.622C286.93 203.509 287.56 200.979 287.755 197.662C287.937 194.566 287.734 191.446 287.158 188.393C287.04 187.763 286.892 187.094 286.512 186.433C285.579 184.811 283.66 183.921 281.332 184.077C280.795 184.111 280.258 184.203 279.72 184.331C278.142 179.419 277.043 174.337 276.487 169.193C276.471 169.045 276.452 168.886 276.432 168.721C278.507 168.858 280.564 168.954 282.586 168.954C290.49 168.954 297.906 167.694 304.363 163.55C308.148 161.118 310.886 158.015 312.284 154.574C314.642 148.75 313.192 141.246 308.587 135.453C304.436 130.233 298.471 126.825 293.183 124.181C288.678 121.929 283.999 119.879 279.28 118.09C267.514 113.635 261.492 118.347 253.162 124.878L225.803 146.314C224.636 147.227 223.043 148.478 222.353 150.394C221.206 153.561 223.046 156.805 225.153 158.787C230.418 163.743 238.226 164.617 243.922 165.254Z" fill="#6D6D6D"/>
</svg>
