<svg width="396" height="410" viewBox="0 0 396 410" fill="none" xmlns="http://www.w3.org/2000/svg">
<path d="M41.1233 129.023C17.2205 125.36 6.01053 88.9672 3.39343 71.2291H10.3724C21.0153 84.1401 32.2543 83.5876 36.5434 81.6975L41.1233 85.4051L61.842 81.6975H72.7466L82.3427 75.809L92.1568 68.1758L99.5719 62.2873L117.674 64.4683H127.488L135.121 66.213L141.009 64.4683L143.408 68.1758L156.712 66.213C166.657 69.3535 171.324 66.3584 172.415 64.4683L176.558 66.213L191.389 62.2873C195.925 54.436 198.949 55.3811 199.894 56.835L208.182 59.8883L210.581 56.835H214.07L217.996 52.9094L228.028 47.6752C229.264 46.7301 232.652 44.1857 236.316 41.5686C239.979 38.9515 249.765 40.4781 254.199 41.5686L257.252 44.84L259.651 43.0953C269.247 47.6316 275.136 44.9854 276.881 43.0953H284.514L287.349 39.6058V33.2811C286.826 14.438 300.943 8.41865 308.068 7.76438C309.812 5.80155 313.127 2.13761 312.43 3.18445C311.732 4.23129 320.717 10.1634 325.297 12.9986V16.4881L329.223 21.9403L340.127 43.0953L349.287 49.638L354.739 56.835C356.411 62.4327 362.852 72.8866 375.24 69.9206C387.628 66.9545 392.324 77.1176 393.124 82.5699C391.233 85.4778 386.712 92.9947 383.746 99.7991C380.78 106.604 374.077 111.213 371.096 112.667C366.734 114.775 356.659 119.035 351.25 119.209C345.841 119.384 334.311 123.935 329.223 126.188L309.812 139.056C301.234 144.581 281.591 157.419 271.646 164.572C261.701 171.726 257.907 177.731 257.252 179.839L247.002 208.191C238.278 252.507 263.432 279.579 277.099 287.576L297.381 305.46C299.489 310.04 304.796 319.2 309.158 319.2C313.52 319.2 323.77 321.38 328.35 322.471C333.076 323.561 344.969 327.618 354.739 335.12C364.51 342.623 363.754 354.094 362.155 358.892L363.681 362.818C363.972 363.836 364.684 366.744 365.208 370.233C365.731 373.722 363.39 379.684 362.155 382.228V390.516L360.628 401.638L345.361 403.383L319.627 401.638C314.611 401.638 303.619 400.984 299.78 398.367C295.942 395.75 289.893 395.677 287.349 395.968L274.7 398.367H263.577C259.913 395.75 255.508 395.677 253.763 395.968L238.06 401.638L220.395 405.128L204.038 407.091L201.421 401.638C200.548 399.094 198.455 393.612 197.059 392.042C195.663 390.472 193.424 386.735 192.479 385.063L190.516 380.483L187.681 370.233C187.099 367.979 185.936 362.556 185.936 358.892C185.936 355.228 183.319 349.95 182.011 347.77L175.686 337.301L168.053 325.742L161.946 319.2C160.565 316.801 156.276 312.221 150.169 313.093C144.063 313.965 137.883 311.712 135.557 310.476C127.531 305.416 123.344 294.991 122.253 290.411V277.326C121.672 274.563 120.509 267.817 120.509 262.932C120.509 258.047 116.002 250.719 113.748 247.665L104.806 233.053L96.5187 221.058L91.0664 211.244L84.9598 201.866L78.1989 190.743C77.2539 188.635 74.4914 183.154 71.0019 178.094C67.5124 173.034 67.0763 168.716 67.2943 167.19L63.5868 158.684L59.443 153.232L50.9375 140.582C49.847 138.547 46.9246 133.734 43.9585 130.768C40.9925 127.802 40.8325 128.369 41.1233 129.023Z" stroke="black" stroke-width="4.42875"/>
<circle cx="312.363" cy="31.1667" r="11.5589" fill="#FF1010" fill-opacity="0.2"/>
<circle cx="312.145" cy="30.9822" r="5.67039" fill="#FF1010" fill-opacity="0.8"/>
<circle cx="234.353" cy="117.901" r="11.5589" fill="#FF1010" fill-opacity="0.2"/>
<circle cx="234.135" cy="117.716" r="5.67039" fill="#FF1010" fill-opacity="0.8"/>
<circle cx="69.9114" cy="98.7051" r="11.5589" fill="#FF1010" fill-opacity="0.2"/>
<circle cx="69.6934" cy="98.5207" r="5.67039" fill="#FF1010" fill-opacity="0.8"/>
<path d="M210.829 142.305C210.268 142.305 209.765 142.207 209.317 142.012C208.879 141.809 208.533 141.533 208.281 141.183C208.029 140.825 207.899 140.415 207.891 139.952H209.074C209.114 140.35 209.277 140.687 209.561 140.964C209.854 141.232 210.277 141.366 210.829 141.366C211.358 141.366 211.772 141.236 212.073 140.976C212.382 140.708 212.536 140.366 212.536 139.952C212.536 139.626 212.447 139.362 212.268 139.159C212.089 138.956 211.866 138.801 211.597 138.696C211.329 138.59 210.967 138.476 210.512 138.354C209.951 138.208 209.5 138.062 209.159 137.915C208.826 137.769 208.537 137.542 208.293 137.233C208.058 136.916 207.94 136.493 207.94 135.965C207.94 135.501 208.058 135.091 208.293 134.733C208.529 134.376 208.858 134.099 209.281 133.904C209.712 133.709 210.203 133.612 210.756 133.612C211.553 133.612 212.203 133.811 212.707 134.209C213.219 134.607 213.508 135.136 213.573 135.794H212.353C212.313 135.469 212.142 135.184 211.841 134.941C211.541 134.689 211.142 134.563 210.646 134.563C210.183 134.563 209.805 134.684 209.513 134.928C209.22 135.164 209.074 135.497 209.074 135.928C209.074 136.237 209.159 136.489 209.33 136.684C209.508 136.879 209.724 137.029 209.976 137.135C210.236 137.233 210.598 137.346 211.061 137.477C211.622 137.631 212.073 137.785 212.414 137.94C212.756 138.086 213.048 138.318 213.292 138.635C213.536 138.944 213.658 139.366 213.658 139.903C213.658 140.317 213.548 140.708 213.329 141.073C213.109 141.439 212.784 141.736 212.353 141.963C211.923 142.191 211.415 142.305 210.829 142.305Z" fill="black"/>
<path d="M215.864 134.453C215.652 134.453 215.474 134.38 215.327 134.233C215.181 134.087 215.108 133.908 215.108 133.697C215.108 133.486 215.181 133.307 215.327 133.16C215.474 133.014 215.652 132.941 215.864 132.941C216.067 132.941 216.238 133.014 216.376 133.16C216.522 133.307 216.595 133.486 216.595 133.697C216.595 133.908 216.522 134.087 216.376 134.233C216.238 134.38 216.067 134.453 215.864 134.453ZM216.4 135.538V142.219H215.291V135.538H216.4Z" fill="black"/>
<path d="M222.022 142.219L219.401 139.269V142.219H218.291V133.197H219.401V138.501L221.973 135.538H223.522L220.376 138.866L223.534 142.219H222.022Z" fill="black"/>
<path d="M230.492 135.538V142.219H229.382V141.232C229.171 141.573 228.874 141.841 228.492 142.037C228.118 142.223 227.704 142.317 227.248 142.317C226.728 142.317 226.261 142.211 225.846 142C225.432 141.78 225.102 141.455 224.859 141.025C224.623 140.594 224.505 140.069 224.505 139.452V135.538H225.602V139.305C225.602 139.964 225.769 140.472 226.102 140.829C226.436 141.179 226.891 141.354 227.468 141.354C228.061 141.354 228.529 141.171 228.87 140.805C229.211 140.439 229.382 139.907 229.382 139.208V135.538H230.492Z" fill="black"/>
<path d="M235.62 135.416C236.433 135.416 237.092 135.664 237.595 136.16C238.099 136.647 238.351 137.355 238.351 138.281V142.219H237.254V138.44C237.254 137.773 237.087 137.265 236.754 136.916C236.421 136.558 235.966 136.379 235.389 136.379C234.803 136.379 234.336 136.562 233.986 136.928C233.645 137.294 233.474 137.826 233.474 138.525V142.219H232.365V135.538H233.474V136.489C233.694 136.148 233.991 135.883 234.364 135.696C234.746 135.509 235.165 135.416 235.62 135.416Z" fill="black"/>
<path d="M239.749 138.854C239.749 138.172 239.887 137.574 240.164 137.062C240.44 136.542 240.818 136.139 241.298 135.855C241.785 135.57 242.326 135.428 242.919 135.428C243.505 135.428 244.013 135.554 244.443 135.806C244.874 136.058 245.195 136.375 245.407 136.757V135.538H246.528V142.219H245.407V140.976C245.187 141.366 244.858 141.691 244.419 141.951C243.988 142.203 243.484 142.329 242.907 142.329C242.314 142.329 241.777 142.183 241.298 141.89C240.818 141.598 240.44 141.187 240.164 140.659C239.887 140.13 239.749 139.529 239.749 138.854ZM245.407 138.866C245.407 138.363 245.305 137.924 245.102 137.55C244.899 137.176 244.622 136.891 244.273 136.696C243.931 136.493 243.553 136.391 243.139 136.391C242.724 136.391 242.346 136.489 242.005 136.684C241.663 136.879 241.391 137.164 241.188 137.538C240.985 137.911 240.883 138.35 240.883 138.854C240.883 139.366 240.985 139.813 241.188 140.195C241.391 140.569 241.663 140.858 242.005 141.061C242.346 141.256 242.724 141.354 243.139 141.354C243.553 141.354 243.931 141.256 244.273 141.061C244.622 140.858 244.899 140.569 245.102 140.195C245.305 139.813 245.407 139.37 245.407 138.866Z" fill="black"/>
<path d="M251.659 135.416C252.471 135.416 253.13 135.664 253.634 136.16C254.138 136.647 254.39 137.355 254.39 138.281V142.219H253.292V138.44C253.292 137.773 253.126 137.265 252.792 136.916C252.459 136.558 252.004 136.379 251.427 136.379C250.842 136.379 250.374 136.562 250.025 136.928C249.683 137.294 249.513 137.826 249.513 138.525V142.219H248.403V135.538H249.513V136.489C249.732 136.148 250.029 135.883 250.403 135.696C250.785 135.509 251.203 135.416 251.659 135.416Z" fill="black"/>
<path d="M258.958 135.428C259.535 135.428 260.039 135.554 260.469 135.806C260.908 136.058 261.234 136.375 261.445 136.757V135.538H262.567V142.366C262.567 142.975 262.437 143.516 262.176 143.987C261.916 144.467 261.542 144.841 261.055 145.109C260.575 145.377 260.014 145.511 259.372 145.511C258.494 145.511 257.763 145.304 257.178 144.89C256.592 144.475 256.247 143.91 256.141 143.195H257.238C257.36 143.601 257.612 143.926 257.994 144.17C258.376 144.422 258.836 144.548 259.372 144.548C259.982 144.548 260.478 144.357 260.86 143.975C261.25 143.593 261.445 143.057 261.445 142.366V140.964C261.225 141.354 260.9 141.679 260.469 141.939C260.039 142.199 259.535 142.329 258.958 142.329C258.364 142.329 257.824 142.183 257.336 141.89C256.856 141.598 256.478 141.187 256.202 140.659C255.926 140.13 255.788 139.529 255.788 138.854C255.788 138.172 255.926 137.574 256.202 137.062C256.478 136.542 256.856 136.139 257.336 135.855C257.824 135.57 258.364 135.428 258.958 135.428ZM261.445 138.866C261.445 138.363 261.343 137.924 261.14 137.55C260.937 137.176 260.66 136.891 260.311 136.696C259.97 136.493 259.592 136.391 259.177 136.391C258.763 136.391 258.385 136.489 258.043 136.684C257.702 136.879 257.429 137.164 257.226 137.538C257.023 137.911 256.921 138.35 256.921 138.854C256.921 139.366 257.023 139.813 257.226 140.195C257.429 140.569 257.702 140.858 258.043 141.061C258.385 141.256 258.763 141.354 259.177 141.354C259.592 141.354 259.97 141.256 260.311 141.061C260.66 140.858 260.937 140.569 261.14 140.195C261.343 139.813 261.445 139.37 261.445 138.866Z" fill="black"/>
<path d="M295.678 56.0853C295.118 56.0853 294.614 55.9878 294.167 55.7927C293.728 55.5895 293.382 55.3131 293.13 54.9636C292.878 54.606 292.748 54.1955 292.74 53.7322H293.923C293.963 54.1305 294.126 54.4678 294.41 54.7442C294.703 55.0124 295.126 55.1465 295.678 55.1465C296.207 55.1465 296.621 55.0165 296.922 54.7564C297.231 54.4881 297.385 54.1467 297.385 53.7322C297.385 53.4071 297.296 53.1429 297.117 52.9397C296.938 52.7365 296.715 52.582 296.447 52.4764C296.178 52.3707 295.817 52.2569 295.361 52.135C294.801 51.9887 294.35 51.8424 294.008 51.696C293.675 51.5497 293.386 51.3221 293.142 51.0133C292.907 50.6963 292.789 50.2736 292.789 49.7453C292.789 49.2819 292.907 48.8715 293.142 48.5138C293.378 48.1562 293.707 47.8798 294.13 47.6847C294.561 47.4897 295.053 47.3921 295.605 47.3921C296.402 47.3921 297.052 47.5913 297.556 47.9895C298.068 48.3878 298.357 48.9162 298.422 49.5746H297.203C297.162 49.2494 296.991 48.9649 296.69 48.7211C296.39 48.4691 295.991 48.3431 295.496 48.3431C295.032 48.3431 294.654 48.465 294.362 48.7089C294.069 48.9446 293.923 49.2779 293.923 49.7087C293.923 50.0176 294.008 50.2695 294.179 50.4646C294.358 50.6597 294.573 50.8101 294.825 50.9157C295.085 51.0133 295.447 51.1271 295.91 51.2571C296.471 51.4116 296.922 51.566 297.264 51.7204C297.605 51.8667 297.898 52.0984 298.141 52.4154C298.385 52.7243 298.507 53.147 298.507 53.6834C298.507 54.098 298.397 54.4881 298.178 54.8539C297.958 55.2197 297.633 55.5164 297.203 55.7439C296.772 55.9715 296.264 56.0853 295.678 56.0853Z" fill="black"/>
<path d="M300.713 48.2334C300.502 48.2334 300.323 48.1602 300.176 48.0139C300.03 47.8676 299.957 47.6888 299.957 47.4775C299.957 47.2661 300.03 47.0873 300.176 46.941C300.323 46.7947 300.502 46.7215 300.713 46.7215C300.916 46.7215 301.087 46.7947 301.225 46.941C301.371 47.0873 301.444 47.2661 301.444 47.4775C301.444 47.6888 301.371 47.8676 301.225 48.0139C301.087 48.1602 300.916 48.2334 300.713 48.2334ZM301.249 49.3185V56H300.14V49.3185H301.249Z" fill="black"/>
<path d="M304.494 50.233V54.1711C304.494 54.4962 304.563 54.7279 304.701 54.8661C304.839 54.9961 305.079 55.0612 305.42 55.0612H306.237V56H305.237C304.62 56 304.156 55.8577 303.848 55.5732C303.539 55.2888 303.384 54.8214 303.384 54.1711V50.233H302.519V49.3185H303.384V47.636H304.494V49.3185H306.237V50.233H304.494Z" fill="black"/>
<path d="M313.678 52.4032C313.678 52.6145 313.666 52.8381 313.641 53.0738H308.301C308.342 53.7322 308.565 54.2483 308.972 54.6222C309.386 54.988 309.886 55.1709 310.471 55.1709C310.951 55.1709 311.349 55.0612 311.666 54.8417C311.991 54.6141 312.219 54.3134 312.349 53.9395H313.544C313.365 54.5816 313.007 55.1059 312.471 55.5123C311.934 55.9106 311.268 56.1097 310.471 56.1097C309.837 56.1097 309.268 55.9675 308.764 55.683C308.268 55.3985 307.878 54.9961 307.594 54.4759C307.309 53.9476 307.167 53.338 307.167 52.6471C307.167 51.9562 307.305 51.3506 307.582 50.8304C307.858 50.3102 308.244 49.9119 308.74 49.6355C309.244 49.351 309.821 49.2088 310.471 49.2088C311.105 49.2088 311.666 49.347 312.154 49.6233C312.641 49.8997 313.015 50.2817 313.275 50.7694C313.544 51.249 313.678 51.7936 313.678 52.4032ZM312.532 52.1716C312.532 51.7489 312.438 51.3872 312.251 51.0864C312.064 50.7776 311.808 50.5459 311.483 50.3915C311.166 50.2289 310.813 50.1476 310.422 50.1476C309.862 50.1476 309.382 50.3264 308.984 50.6841C308.594 51.0417 308.37 51.5375 308.313 52.1716H312.532Z" fill="black"/>
<path d="M316.252 50.4036C316.447 50.0216 316.723 49.7249 317.081 49.5136C317.447 49.3023 317.89 49.1966 318.41 49.1966V50.3427H318.117C316.874 50.3427 316.252 51.0173 316.252 52.3666V56H315.142V49.3185H316.252V50.4036Z" fill="black"/>
<path d="M325.616 49.3185V56H324.507V55.0124C324.295 55.3538 323.999 55.622 323.617 55.8171C323.243 56.0041 322.828 56.0975 322.373 56.0975C321.853 56.0975 321.385 55.9919 320.971 55.7805C320.556 55.5611 320.227 55.2359 319.983 54.8051C319.748 54.3743 319.63 53.85 319.63 53.2323V49.3185H320.727V53.086C320.727 53.7444 320.894 54.2524 321.227 54.61C321.56 54.9596 322.015 55.1343 322.592 55.1343C323.186 55.1343 323.653 54.9514 323.995 54.5857C324.336 54.2199 324.507 53.6875 324.507 52.9884V49.3185H325.616Z" fill="black"/>
<path d="M329.855 56.1097C329.343 56.1097 328.884 56.0244 328.477 55.8537C328.071 55.6749 327.75 55.431 327.514 55.1221C327.278 54.8051 327.148 54.4434 327.124 54.037H328.27C328.302 54.3703 328.457 54.6426 328.733 54.8539C329.018 55.0652 329.388 55.1709 329.843 55.1709C330.265 55.1709 330.599 55.0774 330.842 54.8905C331.086 54.7035 331.208 54.4678 331.208 54.1833C331.208 53.8907 331.078 53.6753 330.818 53.5371C330.558 53.3908 330.156 53.2486 329.611 53.1104C329.115 52.9803 328.709 52.8503 328.392 52.7202C328.083 52.582 327.815 52.3829 327.587 52.1228C327.368 51.8546 327.258 51.505 327.258 51.0742C327.258 50.7328 327.36 50.4199 327.563 50.1354C327.766 49.8509 328.054 49.6274 328.428 49.4648C328.802 49.2941 329.229 49.2088 329.709 49.2088C330.448 49.2088 331.046 49.3957 331.501 49.7696C331.956 50.1435 332.2 50.6556 332.232 51.3059H331.123C331.099 50.9564 330.956 50.6759 330.696 50.4646C330.444 50.2533 330.103 50.1476 329.672 50.1476C329.274 50.1476 328.957 50.233 328.721 50.4036C328.485 50.5743 328.367 50.7979 328.367 51.0742C328.367 51.2937 328.437 51.4766 328.575 51.6229C328.721 51.7611 328.9 51.8749 329.111 51.9643C329.331 52.0456 329.631 52.139 330.013 52.2447C330.493 52.3748 330.883 52.5048 331.184 52.6349C331.485 52.7568 331.741 52.9437 331.952 53.1957C332.171 53.4477 332.285 53.7769 332.293 54.1833C332.293 54.5491 332.192 54.8783 331.989 55.1709C331.785 55.4635 331.497 55.6952 331.123 55.8659C330.757 56.0284 330.334 56.1097 329.855 56.1097Z" fill="black"/>
<path d="M58.6786 123.397H57.5691L53.1066 116.63V123.397H51.9971V114.887H53.1066L57.5691 121.642V114.887H58.6786V123.397Z" fill="black"/>
<path d="M63.3254 116.606C63.9025 116.606 64.4065 116.732 64.8373 116.984C65.2762 117.236 65.6013 117.553 65.8127 117.935V116.716H66.9344V123.544C66.9344 124.153 66.8043 124.694 66.5442 125.165C66.2841 125.645 65.9102 126.019 65.4225 126.287C64.9429 126.555 64.3821 126.689 63.74 126.689C62.8621 126.689 62.1306 126.482 61.5453 126.067C60.9601 125.653 60.6146 125.088 60.509 124.373H61.6063C61.7282 124.779 61.9802 125.104 62.3622 125.348C62.7442 125.6 63.2035 125.726 63.74 125.726C64.3496 125.726 64.8454 125.535 65.2274 125.153C65.6176 124.771 65.8127 124.234 65.8127 123.544V122.141C65.5932 122.532 65.2681 122.857 64.8373 123.117C64.4065 123.377 63.9025 123.507 63.3254 123.507C62.732 123.507 62.1915 123.361 61.7038 123.068C61.2242 122.775 60.8463 122.365 60.5699 121.837C60.2936 121.308 60.1554 120.707 60.1554 120.032C60.1554 119.349 60.2936 118.752 60.5699 118.24C60.8463 117.72 61.2242 117.317 61.7038 117.033C62.1915 116.748 62.732 116.606 63.3254 116.606ZM65.8127 120.044C65.8127 119.54 65.7111 119.101 65.5079 118.728C65.3047 118.354 65.0283 118.069 64.6788 117.874C64.3374 117.671 63.9594 117.569 63.5449 117.569C63.1303 117.569 62.7524 117.667 62.411 117.862C62.0696 118.057 61.7973 118.341 61.5941 118.715C61.3909 119.089 61.2893 119.528 61.2893 120.032C61.2893 120.544 61.3909 120.991 61.5941 121.373C61.7973 121.747 62.0696 122.036 62.411 122.239C62.7524 122.434 63.1303 122.532 63.5449 122.532C63.9594 122.532 64.3374 122.434 64.6788 122.239C65.0283 122.036 65.3047 121.747 65.5079 121.373C65.7111 120.991 65.8127 120.548 65.8127 120.044Z" fill="black"/>
<path d="M68.3948 120.032C68.3948 119.349 68.533 118.752 68.8094 118.24C69.0857 117.72 69.4637 117.317 69.9433 117.033C70.4309 116.748 70.9715 116.606 71.5648 116.606C72.1501 116.606 72.6581 116.732 73.0889 116.984C73.5197 117.236 73.8408 117.553 74.0521 117.935V116.716H75.1738V123.397H74.0521V122.154C73.8326 122.544 73.5034 122.869 73.0645 123.129C72.6337 123.381 72.1298 123.507 71.5527 123.507C70.9593 123.507 70.4228 123.361 69.9433 123.068C69.4637 122.775 69.0857 122.365 68.8094 121.837C68.533 121.308 68.3948 120.707 68.3948 120.032ZM74.0521 120.044C74.0521 119.54 73.9505 119.101 73.7473 118.728C73.5441 118.354 73.2677 118.069 72.9182 117.874C72.5768 117.671 72.1989 117.569 71.7843 117.569C71.3698 117.569 70.9918 117.667 70.6504 117.862C70.309 118.057 70.0367 118.341 69.8335 118.715C69.6303 119.089 69.5287 119.528 69.5287 120.032C69.5287 120.544 69.6303 120.991 69.8335 121.373C70.0367 121.747 70.309 122.036 70.6504 122.239C70.9918 122.434 71.3698 122.532 71.7843 122.532C72.1989 122.532 72.5768 122.434 72.9182 122.239C73.2677 122.036 73.5441 121.747 73.7473 121.373C73.9505 120.991 74.0521 120.548 74.0521 120.044Z" fill="black"/>
<path d="M80.3042 116.594C81.117 116.594 81.7754 116.842 82.2793 117.338C82.7833 117.825 83.0353 118.532 83.0353 119.459V123.397H81.938V119.618C81.938 118.951 81.7713 118.443 81.4381 118.094C81.1048 117.736 80.6496 117.557 80.0725 117.557C79.4873 117.557 79.0199 117.74 78.6704 118.106C78.329 118.471 78.1583 119.004 78.1583 119.703V123.397H77.0488V116.716H78.1583V117.667C78.3778 117.325 78.6744 117.061 79.0483 116.874C79.4304 116.687 79.849 116.594 80.3042 116.594Z" fill="black"/>
<path d="M84.4331 120.032C84.4331 119.349 84.5713 118.752 84.8477 118.24C85.124 117.72 85.502 117.317 85.9816 117.033C86.4693 116.748 87.0139 116.606 87.6154 116.606C88.1356 116.606 88.6192 116.728 89.0663 116.972C89.5133 117.208 89.8547 117.52 90.0904 117.911V114.375H91.2121V123.397H90.0904V122.141C89.871 122.54 89.5458 122.869 89.115 123.129C88.6842 123.381 88.1803 123.507 87.6032 123.507C87.0098 123.507 86.4693 123.361 85.9816 123.068C85.502 122.775 85.124 122.365 84.8477 121.837C84.5713 121.308 84.4331 120.707 84.4331 120.032ZM90.0904 120.044C90.0904 119.54 89.9888 119.101 89.7856 118.728C89.5824 118.354 89.306 118.069 88.9565 117.874C88.6151 117.671 88.2372 117.569 87.8226 117.569C87.4081 117.569 87.0301 117.667 86.6887 117.862C86.3473 118.057 86.075 118.341 85.8718 118.715C85.6686 119.089 85.567 119.528 85.567 120.032C85.567 120.544 85.6686 120.991 85.8718 121.373C86.075 121.747 86.3473 122.036 86.6887 122.239C87.0301 122.434 87.4081 122.532 87.8226 122.532C88.2372 122.532 88.6151 122.434 88.9565 122.239C89.306 122.036 89.5824 121.747 89.7856 121.373C89.9888 120.991 90.0904 120.548 90.0904 120.044Z" fill="black"/>
<path d="M92.6726 120.032C92.6726 119.349 92.8107 118.752 93.0871 118.24C93.3635 117.72 93.7414 117.317 94.221 117.033C94.7087 116.748 95.2492 116.606 95.8426 116.606C96.4278 116.606 96.9359 116.732 97.3667 116.984C97.7975 117.236 98.1185 117.553 98.3299 117.935V116.716H99.4516V123.397H98.3299V122.154C98.1104 122.544 97.7812 122.869 97.3423 123.129C96.9115 123.381 96.4075 123.507 95.8304 123.507C95.237 123.507 94.7006 123.361 94.221 123.068C93.7414 122.775 93.3635 122.365 93.0871 121.837C92.8107 121.308 92.6726 120.707 92.6726 120.032ZM98.3299 120.044C98.3299 119.54 98.2283 119.101 98.025 118.728C97.8218 118.354 97.5455 118.069 97.196 117.874C96.8546 117.671 96.4766 117.569 96.0621 117.569C95.6475 117.569 95.2696 117.667 94.9282 117.862C94.5868 118.057 94.3145 118.341 94.1113 118.715C93.9081 119.089 93.8065 119.528 93.8065 120.032C93.8065 120.544 93.9081 120.991 94.1113 121.373C94.3145 121.747 94.5868 122.036 94.9282 122.239C95.2696 122.434 95.6475 122.532 96.0621 122.532C96.4766 122.532 96.8546 122.434 97.196 122.239C97.5455 122.036 97.8218 121.747 98.025 121.373C98.2283 120.991 98.3299 120.548 98.3299 120.044Z" fill="black"/>
<path d="M109.361 116.594C109.882 116.594 110.345 116.704 110.751 116.923C111.158 117.134 111.479 117.455 111.715 117.886C111.95 118.317 112.068 118.841 112.068 119.459V123.397H110.971V119.618C110.971 118.951 110.804 118.443 110.471 118.094C110.146 117.736 109.703 117.557 109.142 117.557C108.565 117.557 108.106 117.744 107.764 118.118C107.423 118.484 107.252 119.016 107.252 119.715V123.397H106.155V119.618C106.155 118.951 105.988 118.443 105.655 118.094C105.33 117.736 104.887 117.557 104.326 117.557C103.749 117.557 103.29 117.744 102.948 118.118C102.607 118.484 102.436 119.016 102.436 119.715V123.397H101.327V116.716H102.436V117.679C102.656 117.329 102.948 117.061 103.314 116.874C103.688 116.687 104.098 116.594 104.545 116.594C105.106 116.594 105.602 116.72 106.033 116.972C106.464 117.224 106.785 117.594 106.996 118.081C107.183 117.61 107.492 117.244 107.923 116.984C108.353 116.724 108.833 116.594 109.361 116.594Z" fill="black"/>
</svg>
